<svg height="480pt" viewBox="0 0 480 480.02556" width="480pt" xmlns="http://www.w3.org/2000/svg"><path d="m152.011719 280c-35.34375 0-64 28.652344-64 64v128h384v-128c0-35.347656-28.652344-64-64-64zm0 0" fill="#79bd9a"/><path d="m280.011719 264c-14.050781-.023438-27.84375-3.75-40-10.800781v26.800781l40 56 40-56v-26.800781c-12.152344 7.050781-25.949219 10.777343-40 10.800781zm0 0" fill="#cff09e"/><path d="m312.011719 8h-136c-4.417969 0-8 3.582031-8 8v88c0 17.671875 14.328125 32 32 32v-48l160 16v32c17.675781 0 32-14.328125 32-32v-16c0-44.183594-35.816407-80-80-80zm0 0" fill="#a8dba8"/><path d="m232.011719 184v-28.640625c-.042969-9.070313 3.761719-17.734375 10.476562-23.839844 6.710938-6.101562 15.699219-9.066406 24.722657-8.160156l92.800781 9.441406v-28.800781l-160-16v96c0 44.183594 35.816406 80 80 80 5.375-.003906 10.734375-.542969 16-1.601562-37.253907-7.601563-64.007813-40.375-64-78.398438zm0 0" fill="#cff09e"/><path d="m360.011719 136h16c8.835937 0 16 7.164062 16 16v16c0 8.835938-7.164063 16-16 16h-16zm0 0" fill="#cff09e"/><path d="m200.011719 184h-16c-8.835938 0-16-7.164062-16-16v-16c0-8.835938 7.164062-16 16-16h16zm0 0" fill="#cff09e"/><path d="m280.011719 336-32 14.238281v9.761719c0 8.835938 7.164062 16 16 16h32c8.835937 0 16-7.164062 16-16v-9.761719zm0 0" fill="#cff09e"/><path d="m304.011719 472h-48l8-96h32zm0 0" fill="#cff09e"/><path d="m320.011719 280-40 56 72 32-10.320313-88zm0 0" fill="#a8dba8"/><path d="m240.011719 280 40 56-72 32 10.320312-88zm0 0" fill="#a8dba8"/><path d="m8.011719 360h160v112h-160zm0 0" fill="#a8dba8"/><path d="m72.011719 392h32v32h-32zm0 0" fill="#79bd9a"/><path d="m8.011719 144h32v104h-32zm0 0" fill="#a8dba8"/><path d="m72.011719 184h32v64h-32zm0 0" fill="#a8dba8"/><path d="m136.011719 216h32v32h-32zm0 0" fill="#a8dba8"/><g fill="#3b8686"><path d="m328.011719 160c0 4.417969-3.582031 8-8 8s-8-3.582031-8-8 3.582031-8 8-8 8 3.582031 8 8zm0 0"/><path d="m248.011719 160c0 4.417969-3.582031 8-8 8s-8-3.582031-8-8 3.582031-8 8-8 8 3.582031 8 8zm0 0"/><path d="m408.011719 424c-4.417969 0-8 3.582031-8 8v40c0 4.417969 3.582031 8 8 8s8-3.582031 8-8v-40c0-4.417969-3.582031-8-8-8zm0 0"/><path d="m408.011719 272h-80v-14.320312c22.699219-14.601563 37.445312-38.8125 40-65.679688h8c13.257812 0 24-10.746094 24-24v-16c-.039063-8.234375-4.296875-15.875-11.277344-20.238281 7.214844-7.445313 11.257813-17.394531 11.277344-27.761719v-16c0-48.601562-39.398438-88-88-88h-136c-8.835938 0-16 7.164062-16 16v88c.023437 10.367188 4.066406 20.316406 11.28125 27.761719-6.984375 4.363281-11.242188 12.003906-11.28125 20.238281v16c0 13.253906 10.746093 24 24 24h8.402343c2.460938 26.796875 17.050782 50.992188 39.597657 65.679688v14.320312h-80c-24.035157.007812-46.484375 12.011719-59.839844 32h-28.160156c-13.253907 0-24 10.746094-24 24v24h-32c-4.417969 0-8.0000002 3.582031-8.0000002 8v112c0 4.417969 3.5820312 8 8.0000002 8h160c4.417969 0 8-3.582031 8-8v-112c0-4.417969-3.582031-8-8-8h-32v-24c.007812-12.949219-10.257813-23.570312-23.199219-24 10.46875-10.257812 24.542969-16.003906 39.199219-16h57.28125l-9.28125 79.039062c-.359375 2.878907.863281 5.722657 3.199219 7.441407 1.398437 1.007812 3.078124 1.542969 4.800781 1.519531 1.132812-.003906 2.25-.25 3.28125-.71875l28.71875-12.882812c.925781 8.96875 6.796875 16.664062 15.199219 19.921874l-7.199219 89.039063c-.351563 4.417969 2.941406 8.289063 7.359375 8.640625 4.421875.351562 8.289062-2.941406 8.640625-7.359375l7.359375-88.640625h17.28125l7.359375 88.640625c.335937 4.164063 3.820312 7.371094 8 7.359375h.640625c2.125-.164062 4.097656-1.167969 5.476562-2.789062 1.382813-1.621094 2.0625-3.726563 1.882813-5.851563l-7.4375-89.039063c8.5-3.1875 14.472656-10.894531 15.4375-19.921874l28.960937 12.882812c.957032.4375 1.988282.679688 3.039063.71875 1.695312.007812 3.347656-.527344 4.722656-1.519531 2.335937-1.71875 3.558594-4.5625 3.199219-7.441407l-9.199219-79.039062h57.277344c30.929687 0 56 25.070312 56 56v128c0 4.417969 3.582031 8 8 8s8-3.582031 8-8v-128c0-39.765625-32.234375-72-72-72zm-352 56c0-4.417969 3.582031-8 8-8h20.242187c-2.796875 7.691406-4.230468 15.816406-4.242187 24v8h-24zm-40 136v-48h48v8c0 4.417969 3.582031 8 8 8h32c4.417969 0 8-3.582031 8-8v-8h48v48zm80-48h-16v-16h16zm64-16h-48v-8c0-4.417969-3.582031-8-8-8h-32c-4.417969 0-8 3.582031-8 8v8h-48v-32h144zm-40-72v24h-24v-8c.011719-8.304688 1.871093-16.503906 5.441406-24h10.558594c4.417969 0 8 3.582031 8 8zm264-160c0 4.417969-3.582031 8-8 8h-8v-32h8c4.417969 0 8 3.582031 8 8zm-208-152h136c39.765625 0 72 32.234375 72 72v16c-.027344 10.144531-6.433594 19.179688-16 22.558594v-22.558594c.023437-4.125-3.097657-7.585938-7.199219-8l-160-16c-2.257812-.226562-4.503906.515625-6.179688 2.039062-1.679687 1.527344-2.632812 3.691407-2.621093 5.960938v38.558594c-9.566407-3.378906-15.96875-12.414063-16-22.558594zm0 152v-16c0-4.417969 3.582031-8 8-8h8v32h-8c-4.417969 0-8-3.582031-8-8zm32 16v-87.199219l144 14.398438v72.800781c0 39.765625-32.234375 72-72 72-39.761719 0-72-32.234375-72-72zm72 88c10.953125-.03125 21.800781-2.09375 32-6.078125v11.519531l-32 44.796875-32-44.796875v-11.519531c10.199219 3.984375 21.050781 6.046875 32 6.078125zm-54.558594 16h10.480469l32 44.640625-50.320313 22.320313zm78.558594 72c0 4.417969-3.582031 8-8 8h-32c-4.417969 0-8-3.582031-8-8v-4.558594l24-10.722656 24 10.722656zm38.402343-5.039062-50.160156-22.320313 32-44.640625h10.480469zm0 0"/><path d="m8.011719 256h32c4.417969 0 8-3.582031 8-8v-104c0-4.417969-3.582031-8-8-8h-32c-4.417969 0-8.0000002 3.582031-8.0000002 8v104c0 4.417969 3.5820312 8 8.0000002 8zm8-104h16v88h-16zm0 0"/><path d="m72.011719 256h32c4.417969 0 8-3.582031 8-8v-64c0-4.417969-3.582031-8-8-8h-32c-4.417969 0-8 3.582031-8 8v64c0 4.417969 3.582031 8 8 8zm8-64h16v48h-16zm0 0"/><path d="m136.011719 256h32c4.417969 0 8-3.582031 8-8v-32c0-4.417969-3.582031-8-8-8h-32c-4.417969 0-8 3.582031-8 8v32c0 4.417969 3.582031 8 8 8zm8-32h16v16h-16zm0 0"/><path d="m88.011719 112c-4.417969 0-8-3.582031-8-8s-3.582031-8-8-8-8 3.582031-8 8c.03125 10.144531 6.433593 19.179688 16 22.558594v9.441406c0 4.417969 3.582031 8 8 8s8-3.582031 8-8v-9.441406c10.921875-3.960938 17.433593-15.175782 15.46875-26.625-1.96875-11.445313-11.851563-19.84375-23.46875-19.933594-4.417969 0-8-3.582031-8-8s3.582031-8 8-8 8 3.582031 8 8 3.582031 8 8 8 8-3.582031 8-8c-.027344-10.144531-6.433594-19.179688-16-22.558594v-9.441406c0-4.417969-3.582031-8-8-8s-8 3.582031-8 8v9.441406c-10.917969 3.960938-17.433594 15.175782-15.464844 26.625 1.964844 11.445313 11.851563 19.84375 23.464844 19.933594 4.417969 0 8 3.582031 8 8s-3.582031 8-8 8zm0 0"/></g></svg>