<svg height="479pt" viewBox="-72 0 479 479.78032" width="479pt" xmlns="http://www.w3.org/2000/svg"><path d="m286.113281 241.945312c-54.179687 15.25-112.367187.050782-152.164062-39.746093-39.800781-39.796875-55.003907-97.984375-39.757813-152.164063-1.097656 2.660156-3.753906 4.335938-6.628906 4.183594l-27.097656-1.601562c-1.941406-.113282-3.839844.609374-5.214844 1.984374-1.375 1.378907-2.097656 3.273438-1.984375 5.21875l1.597656 27.101563c.179688 3.042969-1.6875 5.832031-4.566406 6.832031l-25.679687 8.953125c-1.839844.640625-3.316407 2.035157-4.058594 3.835938-.746094 1.796875-.683594 3.828125.164062 5.578125l11.832032 24.417968c1.328124 2.742188.675781 6.035157-1.601563 8.0625l-20.28125 18.050782c-1.453125 1.292968-2.285156 3.148437-2.285156 5.09375 0 1.949218.832031 3.800781 2.285156 5.097656l20.273437 18.09375c2.277344 2.03125 2.929688 5.328125 1.601563 8.074219l-11.832031 24.429687c-.847656 1.753906-.910156 3.785156-.164063 5.582032.742188 1.800781 2.21875 3.195312 4.058594 3.835937l25.648437 8.910156c2.878907 1.007813 4.742188 3.796875 4.566407 6.839844l-1.597657 27.105469c-.113281 1.941406.613282 3.835937 1.984376 5.210937 1.375 1.375 3.273437 2.097657 5.214843 1.988281l27.09375-1.597656c3.046875-.183594 5.84375 1.683594 6.839844 4.566406l8.914063 25.601563c.640624 1.835937 2.035156 3.316406 3.832031 4.0625s3.832031.6875 5.582031-.160156l24.488281-11.792969c2.746094-1.328125 6.039063-.675781 8.066407 1.601562l18.046874 20.277344c1.292969 1.457032 3.148438 2.289063 5.097657 2.289063 1.945312 0 3.800781-.832031 5.09375-2.289063l18.046875-20.277344c2.03125-2.277343 5.328125-2.933593 8.074218-1.601562l24.429688 11.832031c1.753906.847657 3.785156.90625 5.585938.160157 1.796874-.746094 3.191406-2.222657 3.832031-4.0625l8.910156-25.601563c.992187-2.878906 3.777344-4.753906 6.816406-4.582031l27.105469 1.597656c1.941406.109375 3.835938-.613281 5.210938-1.988281 1.371093-1.375 2.097656-3.269531 1.988281-5.210938l-1.597657-27.105469c-.171874-2.90625 1.53125-5.597656 4.230469-6.6875zm0 0" fill="#cff09e"/><path d="m216.378906 223.738281c-35.847656.058594-69.1875-18.375-88.191406-48.769531-19.007812-30.390625-20.992188-68.433594-5.25-100.636719-40.953125 19.875-64.203125 64.085938-57.371094 109.09375 6.832032 45.003907 42.15625 80.324219 87.160156 87.152344 45.003907 6.828125 89.214844-16.421875 109.089844-57.375-14.144531 6.925781-29.6875 10.53125-45.4375 10.535156zm0 0" fill="#fd0"/><path d="m168.378906 63.738281c-57.4375 0-104 46.5625-104 104s46.5625 104 104 104 104-46.5625 104-104-46.5625-104-104-104zm0 176c-39.765625 0-72-32.234375-72-72s32.234375-72 72-72c39.761719 0 72 32.234375 72 72s-32.238281 72-72 72zm0 0" fill="#a8dba8"/><path d="m200.378906 215.738281c-27.3125.039063-52.285156-15.394531-64.460937-39.835937-12.175781-24.445313-9.453125-53.675782 7.027343-75.453125-28.640624 10.800781-47.316406 38.542969-46.542968 69.140625.773437 30.601562 20.820312 57.363281 49.972656 66.707031 29.152344 9.339844 61.019531-.785156 79.433594-25.238281-8.125 3.089844-16.742188 4.675781-25.429688 4.679687zm0 0" fill="#cff09e"/><path d="m168.378906 95.738281c-23.066406.003907-44.722656 11.078125-58.226562 29.777344 28.621094-20.847656 68.160156-17.757813 93.195312 7.28125 25.035156 25.042969 28.117188 64.582031 7.261719 93.199219 25.304687-18.285156 35.925781-50.804688 26.296875-80.503906-9.628906-29.695313-37.308594-49.792969-68.527344-49.753907zm0 0" fill="#cff09e"/><path d="m266.617188 282.324219-17.441407-.984375c-3.042969-.183594-5.839843 1.683594-6.839843 4.566406l-8.910157 25.601562c-.640625 1.839844-2.035156 3.316407-3.832031 4.0625-1.800781.746094-3.832031.6875-5.585938-.160156l-24.429687-11.816406c-2.746094-1.332031-6.042969-.675781-8.074219 1.601562l-18.046875 20.277344c-1.292969 1.457032-3.148437 2.289063-5.097656 2.289063-1.945313 0-3.800781-.832031-5.09375-2.289063l-.242187-.277344 51.457031 141.375c1.011719 2.773438 3.484375 4.746094 6.410156 5.121094 2.925781.371094 5.816406-.921875 7.488281-3.351562l27.09375-39.480469c1.90625-2.777344 5.363282-4.035156 8.609375-3.136719l46.128907 12.800782c2.839843.789062 5.886718-.078126 7.890624-2.246094 2.003907-2.164063 2.628907-5.269532 1.621094-8.042969zm0 0" fill="#a8dba8"/><path d="m173.472656 325.484375c-1.292968 1.453125-3.148437 2.285156-5.09375 2.285156-1.949218 0-3.804687-.832031-5.097656-2.285156l-18.046875-20.28125c-2.027344-2.277344-5.320313-2.929687-8.066406-1.601563l-24.4375 11.832032c-1.753907.847656-3.785157.90625-5.585938.160156-1.796875-.746094-3.191406-2.222656-3.832031-4.0625l-8.910156-25.601562c-.988282-2.886719-3.777344-4.761719-6.824219-4.589844l-17.425781 1.007812-53.136719 145.925782c-1.007813 2.773437-.382813 5.878906 1.621094 8.046874 2.003906 2.164063 5.050781 3.03125 7.890625 2.242188l46.136718-12.800781c3.246094-.894531 6.703126.363281 8.609376 3.136719l27.105468 39.449218c1.667969 2.433594 4.558594 3.730469 7.488282 3.359375 2.929687-.375 5.40625-2.351562 6.414062-5.128906l51.457031-141.375zm0 0" fill="#a8dba8"/><path d="m278.351562 314.5625-11.734374-32.238281-17.441407-.984375c-3.042969-.183594-5.839843 1.683594-6.839843 4.566406l-8.910157 25.601562c-.640625 1.839844-2.035156 3.316407-3.832031 4.0625-1.800781.746094-3.832031.6875-5.585938-.160156l-24.429687-11.816406c-2.746094-1.332031-6.042969-.675781-8.074219 1.601562l-18.046875 20.277344c-1.292969 1.457032-3.148437 2.289063-5.097656 2.289063-1.945313 0-3.800781-.832031-5.09375-2.289063l-.242187-.277344 11.363281 31.199219 17.117187-19.199219c2.03125-2.277343 5.328125-2.933593 8.074219-1.601562l24.429687 11.832031c1.753907.847657 3.785157.90625 5.585938.160157 1.796875-.746094 3.191406-2.222657 3.832031-4.0625l8.910157-25.601563c.992187-2.890625 3.789062-4.761719 6.839843-4.582031l27.105469 1.597656c.707031-.011719 1.40625-.136719 2.070312-.375zm0 0" fill="#79bd9a"/><path d="m173.472656 325.484375c-1.292968 1.453125-3.148437 2.285156-5.09375 2.285156-1.949218 0-3.804687-.832031-5.097656-2.285156l-18.046875-20.28125c-2.027344-2.277344-5.320313-2.929687-8.066406-1.601563l-24.4375 11.832032c-1.753907.847656-3.785157.90625-5.585938.160156-1.796875-.746094-3.191406-2.222656-3.832031-4.0625l-8.910156-25.601562c-.988282-2.886719-3.777344-4.761719-6.824219-4.589844l-17.425781 1.007812-11.734375 32.238282c.664062.21875 1.363281.328124 2.0625.328124l27.097656-1.597656c3.046875-.183594 5.839844 1.683594 6.839844 4.566406l8.910156 25.601563c.640625 1.835937 2.035156 3.316406 3.832031 4.0625 1.800782.746094 3.832032.6875 5.585938-.160156l24.429687-11.792969c2.746094-1.328125 6.039063-.675781 8.066407 1.601562l17.117187 19.199219 11.371094-31.199219zm0 0" fill="#79bd9a"/><g fill="#3b8686"><path d="m336.378906 167.738281c0-4.226562-1.808594-8.257812-4.96875-11.0625l-19.617187-17.457031 11.441406-23.632812c1.839844-3.800782 1.972656-8.210938.355469-12.117188-1.617188-3.902344-4.820313-6.933594-8.8125-8.320312l-24.800782-8.625 1.527344-26.207032c.25-4.226562-1.320312-8.355468-4.3125-11.347656-2.992187-2.996094-7.125-4.5625-11.351562-4.308594l-26.199219 1.519532-8.632813-24.800782c-1.386718-3.996094-4.414062-7.203125-8.320312-8.824218-3.910156-1.617188-8.320312-1.488282-12.125.351562l-23.65625 11.449219-17.449219-19.609375c-2.886719-3.03125-6.890625-4.746094-11.074219-4.746094-4.1875 0-8.191406 1.714844-11.078124 4.746094l-17.449219 19.609375-23.628907-11.441407c-3.808593-1.847656-8.226562-1.980468-12.136718-.363281-3.910156 1.621094-6.941406 4.835938-8.328125 8.835938l-8.625 24.800781-26.207031-1.519531c-4.226563-.25-8.355469 1.320312-11.347657 4.3125-2.992187 2.992187-4.5625 7.125-4.308593 11.351562l1.519531 26.199219-24.800781 8.625c-3.992188 1.390625-7.199219 4.421875-8.816407 8.328125-1.617187 3.90625-1.488281 8.320313.351563 12.125l11.441406 23.640625-19.609375 17.449219c-3.160156 2.8125-4.96875 6.839843-4.96875 11.070312s1.808594 8.261719 4.96875 11.074219l19.617187 17.453125-11.429687 23.632813c-1.847656 3.800781-1.984375 8.210937-.371094 12.121093 1.609375 3.90625 4.8125 6.9375 8.800781 8.335938l24.800782 8.625-1.519532 26.207031c-.496093 7.921875 5.386719 14.804688 13.289063 15.542969l-49.042969 134.769531c-2.046875 5.59375-.785156 11.867188 3.261719 16.238281 4.046875 4.375 10.203125 6.113281 15.941406 4.503907l46-12.878907 27.09375 39.472657c3.363281 4.902343 9.1875 7.511718 15.082031 6.761718 5.898438-.746094 10.882813-4.726562 12.917969-10.3125l38.578125-106.050781 38.597656 106.074219c2.035157 5.585937 7.019532 9.566406 12.917969 10.3125 5.898438.75 11.71875-1.859375 15.082031-6.761719l27-39.449219 46.128907 12.800782c5.734375 1.605468 11.886719-.132813 15.933593-4.503907 4.046876-4.367187 5.308594-10.636719 3.265626-16.230469l-49.105469-134.753906c3.390625-.308594 6.566406-1.792968 8.976562-4.191406 2.988281-3 4.554688-7.128906 4.3125-11.351562l-1.511719-26.199219 24.800782-8.625c3.996094-1.390625 7.203125-4.421875 8.824218-8.328125 1.617188-3.90625 1.488282-8.320313-.351562-12.128906l-11.449219-23.640626 19.609375-17.445312c3.167969-2.820312 4.980469-6.863281 4.96875-11.105469zm-221.417968 296.082031-27.085938-39.472656c-3.84375-5.59375-10.8125-8.132812-17.355469-6.320312l-45.980469 12.984375 51.308594-141 11.289063-.65625 8.625 24.800781c1.390625 3.992188 4.417969 7.203125 8.328125 8.820312 3.90625 1.621094 8.320312 1.492188 12.128906-.351562l23.636719-11.445312 16.1875 18.199218 3.839843 10.535156zm151.289062-45.785156c-6.539062-1.824218-13.515625.714844-17.351562 6.3125l-26.921876 39.496094-45.121093-123.960938 3.824219-10.511718 16.195312-18.191406 23.628906 11.4375c3.8125 1.859374 8.238282 1.996093 12.152344.375 3.917969-1.621094 6.953125-4.84375 8.335938-8.855469l8.632812-24.796875 11.289062.65625 51.464844 140.855468zm34.230469-233.097656c-4.917969 4.421875-6.335938 11.554688-3.480469 17.519531l11.257812 23.257813-24.382812 8.472656c-6.242188 2.195312-10.277344 8.257812-9.898438 14.863281l1.496094 25.777344-8.40625-.488281-17.410156-1c-6.617188-.386719-12.691406 3.660156-14.878906 9.917968l-8.480469 24.386719-23.246094-11.25c-5.96875-2.855469-13.105469-1.441406-17.53125 3.480469l-17.140625 19.289062-17.167968-19.296874c-4.421876-4.925782-11.566407-6.34375-17.53125-3.472657l-23.246094 11.25-8.457032-24.386719c-2.171874-6.269531-8.253906-10.324218-14.878906-9.917968l-17.351562 1.007812-8.417969.488282 1.503906-25.777344c.375-6.613282-3.675781-12.675782-9.925781-14.863282l-24.386719-8.472656 11.25-23.257812c2.863281-5.964844 1.445313-13.105469-3.480469-17.527344l-19.3125-17.199219 19.304688-17.167969c4.917969-4.421874 6.332031-11.554687 3.472656-17.519531l-11.25-23.230469 24.386719-8.480468c6.25-2.191406 10.296875-8.25 9.925781-14.867188l-1.503906-25.773437 25.785156 1.496093c6.601563.324219 12.640625-3.703124 14.878906-9.921874l8.472657-24.382813 23.246093 11.246094c5.972657 2.859375 13.113282 1.441406 17.539063-3.476563l17.144531-19.289062 17.175782 19.296875c4.421874 4.917969 11.554687 6.332031 17.519531 3.46875l23.246093-11.246094 8.457032 24.382813c2.15625 6.285156 8.25 10.351562 14.878906 9.929687l25.785156-1.496094-1.464844 25.777344c-.375 6.601563 3.660157 12.65625 9.898438 14.855469l24.382812 8.472656-11.257812 23.253906c-2.855469 5.96875-1.433594 13.105469 3.488281 17.527344l19.289063 17.144531zm0 0"/><path d="m168.378906 55.738281c-61.859375 0-112 50.144531-112 112s50.140625 112 112 112c61.855469 0 112-50.144531 112-112-.078125-61.824219-50.175781-111.925781-112-112zm0 208c-53.019531 0-96-42.980469-96-96s42.980469-96 96-96c53.015625 0 96 42.980469 96 96-.058594 52.996094-43.007812 95.941407-96 96zm0 0"/><path d="m168.378906 87.738281c-44.183594 0-80 35.816407-80 80 0 44.183594 35.816406 80 80 80 44.179688 0 80-35.816406 80-80-.058594-44.160156-35.84375-79.941406-80-80zm0 144c-35.347656 0-64-28.652343-64-64 0-35.347656 28.652344-64 64-64 35.34375 0 64 28.652344 64 64-.042968 35.332031-28.671875 63.960938-64 64zm0 0"/><path d="m192.378906 191.738281h-16v-56c-.003906-1.046875-.210937-2.082031-.617187-3.046875-1.023438-2.46875-3.210938-4.261718-5.832031-4.785156-2.621094-.519531-5.328126.304688-7.214844 2.191406l-16 16c-2.082032 2.007813-2.914063 4.984375-2.183594 7.78125.734375 2.796875 2.917969 4.980469 5.714844 5.714844 2.796875.730469 5.769531-.101562 7.777344-2.183594l2.355468-2.328125v36.65625h-16c-4.421875 0-8 3.582031-8 8s3.578125 8 8 8h48c4.417969 0 8-3.582031 8-8s-3.582031-8-8-8zm0 0"/><path d="m231.519531 396.402344-21.023437-57.742188c-1.324219-4.21875-5.816406-6.5625-10.035156-5.238281-4.21875 1.328125-6.5625 5.820313-5.234376 10.035156l25.789063 70.875c1.03125 2.824219 3.558594 4.832031 6.546875 5.199219 2.980469.378906 5.921875-.953125 7.597656-3.449219l.519532-.800781c7.792968-11.144531 21.734374-16.214844 34.867187-12.679688l.957031.265626c4.261719 1.175781 8.667969-1.320313 9.84375-5.582032 1.179688-4.257812-1.320312-8.664062-5.578125-9.84375l-.945312-.253906c-15.074219-4.078125-31.195313-.648438-43.304688 9.214844zm0 0"/><path d="m114.257812 406.234375c-8.847656-12.898437-23.4375-20.664063-39.082031-20.800781l16.203125-44.519532c1.410156-4.121093-.738281-8.617187-4.835937-10.105468-4.09375-1.492188-8.628907.570312-10.199219 4.632812l-20.765625 56.992188c-1.019531 2.804687-.394531 5.945312 1.625 8.144531 2.019531 2.195313 5.09375 3.089844 7.972656 2.3125l1-.273437c13.109375-3.507813 27.015625 1.542968 34.816407 12.648437l.578124.800781c1.589844 2.40625 4.355469 3.765625 7.234376 3.5625 2.875-.203125 5.421874-1.9375 6.660156-4.542968 1.238281-2.605469.980468-5.675782-.679688-8.035157zm0 0"/></g></svg>