<svg height="512" viewBox="0 0 64 64" width="512" xmlns="http://www.w3.org/2000/svg"><g id="Twotone"><g id="Color_copy" data-name="Color copy"><g><g><g fill="#cff09e"><g><path d="m27.965 27.598 1.035-.598h-1z"/><path d="m30.909 42.447a4.381 4.381 0 0 1 -1.909-3.609v-3.021a4.387 4.387 0 0 1 1.285-3.1l.048-.048-.333-5.669h-1a3.992 3.992 0 0 1 -1.315 5.357l-.685 11.643h4z"/></g><path d="m34.2 28-3.975-2.3a3.952 3.952 0 0 0 -1.225 1.3l5.2 3a4 4 0 0 0 5.464-1.464l-1.22-.705a3.989 3.989 0 0 1 -4.244.169z"/><path d="m27 22v-4.445a3.955 3.955 0 0 0 -2-.555v6a4 4 0 0 0 4 4v-1.555a3.982 3.982 0 0 1 -2-3.445z"/><g><path d="m28 30a2.963 2.963 0 0 0 1.472-.4 3.96 3.96 0 0 0 -.472-2.6l-3.3 1.9a2.959 2.959 0 0 0 2.3 1.1z"/><path d="m28.536 30.464-1.732 1a3.994 3.994 0 0 1 -4.315-.212 3.986 3.986 0 0 0 -.149 4.212l5.2-3a3.975 3.975 0 0 0 1.92-2.764 3.89 3.89 0 0 1 -.924.764z"/></g></g><circle cx="29" cy="27" fill="#a8dba8" r="2"/><g fill="#cff09e"><path d="m12.909 39.447a4.381 4.381 0 0 1 -1.909-3.609v-3.021a4.387 4.387 0 0 1 1.285-3.1l.048-.048-.333-5.669h-1a3.992 3.992 0 0 1 -1.315 5.357l-.685 11.643h4z"/><path d="m9.965 24.598 1.035-.598h-1z"/></g><path d="m16.2 25-3.975-2.3a3.952 3.952 0 0 0 -1.225 1.3l5.2 3a4 4 0 0 0 5.464-1.464l-1.22-.705a3.989 3.989 0 0 1 -4.244.169z" fill="#cff09e"/><path d="m9 19v-4.445a3.955 3.955 0 0 0 -2-.555v6a4 4 0 0 0 4 4v-1.555a3.982 3.982 0 0 1 -2-3.445z" fill="#cff09e"/><g fill="#cff09e"><path d="m10 27a2.963 2.963 0 0 0 1.472-.4 3.96 3.96 0 0 0 -.472-2.6l-3.295 1.9a2.959 2.959 0 0 0 2.295 1.1z"/><path d="m10.536 27.464-1.732 1a3.994 3.994 0 0 1 -4.315-.212 3.986 3.986 0 0 0 -.149 4.212l5.2-3a3.975 3.975 0 0 0 1.92-2.764 3.89 3.89 0 0 1 -.924.764z"/></g><circle cx="11" cy="24" fill="#a8dba8" r="2"/></g><path d="m31 61h-14v-18l14-6z" fill="#a8dba8"/><path d="m17 61h-14v-18l14-6z" fill="#a8dba8"/><path d="m59 21h-4l-1 12h6z" fill="#79bd9a"/><path d="m49 21h-4l-1 12h6z" fill="#79bd9a"/><path d="m44.667 25-.334 4h5.334l-.334-4z" fill="#cff09e"/><path d="m54.667 25-.334 4h5.334l-.334-4z" fill="#cff09e"/><path d="m39 33v28h6v-8h16v-20z" fill="#a8dba8"/><path d="m39 51v-4h-15v14h15v-6h-8v-4z" fill="#79bd9a"/><g fill="#cff09e"><path d="m61 61h-8v-8z"/><path d="m53 61h-8v-8z"/><path d="m39 55h-4v-4z"/><path d="m35 55h-4v-4z"/><path d="m51.838 13.739a2.979 2.979 0 0 1 -2.255-1.039 1.987 1.987 0 0 1 -3.719-.7 1.994 1.994 0 1 0 2.719 2.7 2.977 2.977 0 0 0 5.23-1.717 2.975 2.975 0 0 1 -1.975.756z"/><path d="m60 16a1.993 1.993 0 0 1 -1.973-1.737 2 2 0 1 0 2.973 1.737 1.905 1.905 0 0 0 -.027-.263 1.972 1.972 0 0 1 -.973.263z"/></g></g></g><g id="Stroke_Close_copy_2" data-name="Stroke Close copy 2"><g fill="#3b8686"><path d="m61 32h-.08l-.257-3.081-.167-2-.5-6a1 1 0 0 0 -.996-.919h-4a1 1 0 0 0 -1 .917l-.5 6-.167 2-.253 3.083h-2.16l-.257-3.081-.167-2-.5-6a1 1 0 0 0 -.996-.919h-4a1 1 0 0 0 -1 .917l-.5 6-.167 2-.253 3.083h-4.08a1 1 0 0 0 -1 1v13h-6v-9a1 1 0 0 0 -.449-.835l-.01-.005-.4-6.769 2.559 1.477a5.013 5.013 0 0 0 6.821-1.827 1 1 0 0 0 -.365-1.367l-5.195-3a4.947 4.947 0 0 0 -4.476-.266 2.976 2.976 0 0 0 -.485-.224v-3.184a4.995 4.995 0 0 0 -5-5 1 1 0 0 0 -1 1v6a4.993 4.993 0 0 0 2 4 2.982 2.982 0 0 0 .055.546l-2.755 1.588a5.014 5.014 0 0 0 -1.827 6.822 1 1 0 0 0 .606.469 1.014 1.014 0 0 0 .262.035.994.994 0 0 0 .5-.134l3.737-2.156-.22 3.73-8.358 3.584v-4.484a1 1 0 0 0 -1.394-.919l-2.822 1.21-.641-10.9 2.557 1.477a5.013 5.013 0 0 0 6.821-1.827 1 1 0 0 0 -.365-1.367l-5.195-3a4.948 4.948 0 0 0 -4.476-.266 2.976 2.976 0 0 0 -.485-.224v-3.184a4.995 4.995 0 0 0 -5-5 1 1 0 0 0 -1 1v6a4.993 4.993 0 0 0 2 4 2.982 2.982 0 0 0 .055.546l-2.755 1.588a5.014 5.014 0 0 0 -1.827 6.822 1 1 0 0 0 .606.469 1.014 1.014 0 0 0 .262.035.994.994 0 0 0 .5-.134l3.736-2.155-.5 8.567-5.471 2.343a1 1 0 0 0 -.606.919v18a1 1 0 0 0 1 1h58a1 1 0 0 0 1-1v-28a1 1 0 0 0 -1-1zm-5.5-5 .084-1h2.826l.084 1 .083 1h-3.157zm2.577-5 .167 2h-2.491l.167-2zm-2.826 8h3.492l.167 2h-3.823zm-9.751-3 .084-1h2.826l.084 1 .083 1h-3.157zm2.577-5 .167 2h-2.491l.167-2zm-2.826 8h3.492l.167 2h-3.823zm-9.251 22h2v2h-2zm-7-26a1 1 0 1 1 -1 1 1 1 0 0 1 1-1zm4.96.406 4.182 2.412a3.106 3.106 0 0 1 -3.443.316l-2.754-1.588a2.982 2.982 0 0 0 .055-.546 2.947 2.947 0 0 0 -.158-.914 2.942 2.942 0 0 1 2.118.32zm-7.96-3.406v-4.829a2.99 2.99 0 0 1 2 2.829v3.184a2.981 2.981 0 0 0 -1.214.81 2.976 2.976 0 0 1 -.786-1.994zm-3.19 10.46a3 3 0 0 1 1.49-2.594l2.765-1.594a2.982 2.982 0 0 0 1.3.658 2.961 2.961 0 0 1 -1.326 1.664l-4.181 2.412a3.021 3.021 0 0 1 -.048-.546zm5.844-.557a4.941 4.941 0 0 0 .655-.638l.25 4.265-1.147.491zm-17.654-9.903a1 1 0 1 1 -1 1 1 1 0 0 1 1-1zm4.96.406 4.182 2.412a3.108 3.108 0 0 1 -3.443.316l-2.754-1.588a2.982 2.982 0 0 0 .055-.546 2.947 2.947 0 0 0 -.158-.914 2.942 2.942 0 0 1 2.118.32zm-7.96-3.406v-4.829a2.99 2.99 0 0 1 2 2.829v3.184a2.981 2.981 0 0 0 -1.214.81 2.976 2.976 0 0 1 -.786-1.994zm-3.19 10.46a3 3 0 0 1 1.49-2.594l2.765-1.594a2.982 2.982 0 0 0 1.3.658 2.961 2.961 0 0 1 -1.325 1.664l-4.181 2.412a3.021 3.021 0 0 1 -.049-.546zm5.844-.557a4.941 4.941 0 0 0 .655-.638l.521 8.863-1.7.73zm-6.654 13.756 12-5.142v21.483h-12zm14 0 12-5.142v7.483h-6a1 1 0 0 0 -1 1v1h-2a1 1 0 0 0 0 2h2v2h-2a1 1 0 0 0 0 2h2v2h-2a1 1 0 0 0 0 2h2v2h-5zm7 16.341v-12h13v2h-7a1 1 0 0 0 -1 1v4a1 1 0 0 0 1 1h7v4zm7-6v-2h2v2zm8-20h20v18h-15a1 1 0 0 0 -1 1v7h-4zm6 20h6v6h-6zm14 6h-6v-6h6z"/><path d="m25 44h2a1 1 0 0 0 0-2h-2a1 1 0 0 0 0 2z"/><path d="m12 48h-3a1 1 0 0 0 0 2h3a1 1 0 0 0 0-2z"/><path d="m12 52h-3a1 1 0 0 0 0 2h3a1 1 0 0 0 0-2z"/><path d="m12 56h-3a1 1 0 0 0 0 2h3a1 1 0 0 0 0-2z"/><path d="m13 42h-2a1 1 0 0 0 0 2h2a1 1 0 0 0 0-2z"/><path d="m43 40h2a1 1 0 0 0 0-2h-2a1 1 0 0 0 0 2z"/><path d="m43 44h2a1 1 0 0 0 0-2h-2a1 1 0 0 0 0 2z"/><path d="m45 48a1 1 0 0 0 0-2h-2a1 1 0 0 0 0 2z"/><path d="m49 40h2a1 1 0 0 0 0-2h-2a1 1 0 0 0 0 2z"/><path d="m49 44h2a1 1 0 0 0 0-2h-2a1 1 0 0 0 0 2z"/><path d="m49 48h2a1 1 0 0 0 0-2h-2a1 1 0 0 0 0 2z"/><path d="m55 40h2a1 1 0 0 0 0-2h-2a1 1 0 0 0 0 2z"/><path d="m55 44h2a1 1 0 0 0 0-2h-2a1 1 0 0 0 0 2z"/><path d="m55 48h2a1 1 0 0 0 0-2h-2a1 1 0 0 0 0 2z"/><path d="m46.838 16.739a2.983 2.983 0 0 0 1.845-.642 3.952 3.952 0 0 0 2.155.642 4 4 0 1 0 -3.487-5.955 2.921 2.921 0 0 0 -.513-.045 3 3 0 0 0 0 6zm0-4a.984.984 0 0 1 .54.162 1 1 0 0 0 1.517-.613 2 2 0 1 1 1.943 2.451 1.967 1.967 0 0 1 -1.5-.7 1 1 0 0 0 -.755-.344.924.924 0 0 0 -.1.006 1 1 0 0 0 -.771.511.986.986 0 0 1 -.869.524 1 1 0 0 1 0-2z"/><path d="m59 19a3 3 0 1 0 -3-3 3 3 0 0 0 3 3zm0-4a1 1 0 1 1 -1 1 1 1 0 0 1 1-1z"/></g></g></g></svg>