<svg id="Twotone" height="512" viewBox="0 0 64 64" width="512" xmlns="http://www.w3.org/2000/svg"><g id="Stroke_copy_3" data-name="Stroke copy 3"><path d="m59 25a16 16 0 0 1 -8.45-2.43 4 4 0 1 1 -5.21-5.26 16 16 0 0 1 -2.34-8.31v-2h-.12v4.84a10 10 0 0 0 -1.88 1.16l-4.2-2.42-4 6.92 4.19 2.42a10.48 10.48 0 0 0 0 2.24l-4.19 2.42 4 6.92 4.2-2.5a10 10 0 0 0 1.93 1.12v4.88h8v-4.84a9.94 9.94 0 0 0 1.87-1.16l4.2 2.46 3.73-6.46z" fill="#cff09e"/><path d="m45 45v-10h-4.75a17 17 0 0 0 -1.23-3l3.36-3.36-7.07-7.07-3.31 3.43a17 17 0 0 0 -3-1.25v-4.75h-10v4.75a17 17 0 0 0 -2.95 1.25l-3.36-3.36-7.07 7.05 3.38 3.36a17 17 0 0 0 -1.23 3h-4.77v9.95h4.75a17 17 0 0 0 1.25 3l-3.38 3.31 7.07 7.07 3.36-3.38a17 17 0 0 0 2.95 1.25v4.75h10v-4.75a17 17 0 0 0 3-1.25l3.36 3.36 7.07-7.07-3.43-3.29a17 17 0 0 0 1.23-3zm-21 3a8 8 0 1 1 8-8 8 8 0 0 1 -8 8z" fill="#79bd9a"/></g><g id="Stroke_Close" fill="#3b8686" data-name="Stroke Close"><path d="m24 31a9 9 0 1 0 9 9 9 9 0 0 0 -9-9zm0 16a7 7 0 1 1 7-7 7 7 0 0 1 -7 7z"/><path d="m46.88 16a5 5 0 1 0 5 5 5 5 0 0 0 -5-5zm0 8a3 3 0 1 1 3-3 3 3 0 0 1 -3 3z"/><path d="m58.42 37.47a1 1 0 0 0 -1.23.71 23.93 23.93 0 0 1 -10.34 14.09 1 1 0 0 0 .53 1.84 1 1 0 0 0 .54-.15 26 26 0 0 0 11.21-15.27 1 1 0 0 0 -.71-1.22z"/><path d="m15.72 16a1 1 0 0 0 .73-.31 23.84 23.84 0 0 1 11.37-6.88 1 1 0 0 0 -.51-1.94 26 26 0 0 0 -12.31 7.4 1 1 0 0 0 0 1.42 1 1 0 0 0 .72.31z"/><path d="m61.5 23.67-3.64-2.1c0-.19 0-.38 0-.57s0-.37 0-.57l3.64-2.1a1 1 0 0 0 .47-.61 1.06 1.06 0 0 0 -.1-.76l-4-6.92a1 1 0 0 0 -1.37-.37l-3.65 2.11a10.67 10.67 0 0 0 -1-.57v-4.21a1 1 0 0 0 -1-1h-8a1 1 0 0 0 -1 1v4.21a9.61 9.61 0 0 0 -1 .57l-3.6-2.11a1 1 0 0 0 -1.36.37l-4 6.92a1 1 0 0 0 .36 1.37l3.64 2.1v.39a1 1 0 0 0 -1.27.09l-2.85 2.85a17.68 17.68 0 0 0 -1.77-.76v-4a1 1 0 0 0 -1-1h-10a1 1 0 0 0 -1 1v4a17.68 17.68 0 0 0 -1.76.73l-2.85-2.85a1 1 0 0 0 -.7-.29 1 1 0 0 0 -.71.29l-7.07 7.12a1 1 0 0 0 -.29.71 1 1 0 0 0 .29.7l2.85 2.85a17.68 17.68 0 0 0 -.76 1.74h-4a1 1 0 0 0 -1 1v10a1 1 0 0 0 1 1h4a17.68 17.68 0 0 0 .73 1.76l-2.82 2.85a1 1 0 0 0 -.29.7 1 1 0 0 0 .29.71l7.09 7.07a1 1 0 0 0 1.41 0l2.85-2.85a17.68 17.68 0 0 0 1.74.76v4a1 1 0 0 0 1 1h10a1 1 0 0 0 1-1v-4a17.68 17.68 0 0 0 1.76-.73l2.85 2.85a1 1 0 0 0 .7.29 1 1 0 0 0 .71-.29l7.07-7.12a1 1 0 0 0 .29-.71 1 1 0 0 0 -.29-.7l-2.85-2.85a17.68 17.68 0 0 0 .76-1.74h4a1 1 0 0 0 1-1v-9h4.88a1 1 0 0 0 1-1v-4.21a10.67 10.67 0 0 0 1-.57l3.65 2.11a1 1 0 0 0 1.34-.33l4-6.92a1.06 1.06 0 0 0 .1-.76 1 1 0 0 0 -.47-.65zm-17.5 20.33h-3.75a1 1 0 0 0 -1 .71 15.75 15.75 0 0 1 -1.15 2.77 1 1 0 0 0 .17 1.18l2.73 2.65-5.69 5.69-2.65-2.66a1 1 0 0 0 -1.18-.17 15.75 15.75 0 0 1 -2.77 1.15 1 1 0 0 0 -.71 1v3.68h-8v-3.75a1 1 0 0 0 -.71-1 15.75 15.75 0 0 1 -2.77-1.15 1 1 0 0 0 -1.18.17l-2.65 2.73-5.69-5.69 2.66-2.65a1 1 0 0 0 .17-1.18 15.75 15.75 0 0 1 -1.15-2.77 1 1 0 0 0 -1-.71h-3.68v-8h3.75a1 1 0 0 0 1-.71 15.75 15.75 0 0 1 1.15-2.77 1 1 0 0 0 -.17-1.18l-2.73-2.65 5.69-5.69 2.65 2.66a1 1 0 0 0 1.18.17 15.75 15.75 0 0 1 2.77-1.15 1 1 0 0 0 .71-1v-3.68h8v3.75a1 1 0 0 0 .71 1 15.75 15.75 0 0 1 2.77 1.15 1 1 0 0 0 1.18-.17l2.65-2.73 5.69 5.69-2.66 2.65a1 1 0 0 0 -.17 1.18 15.75 15.75 0 0 1 1.15 2.77 1 1 0 0 0 1 .71h3.68zm-3-10a17.68 17.68 0 0 0 -.73-1.76l1.52-1.52.12.07v3.21zm15.66-3.9-3.36-1.93a1 1 0 0 0 -1.09.07 9.27 9.27 0 0 1 -1.73 1 1 1 0 0 0 -.6.91v3.85h-6v-3.84a1 1 0 0 0 -.6-.91h-.07a1 1 0 0 0 .17-.52 1 1 0 0 0 -.29-.71l-5.32-5.32a1.06 1.06 0 0 0 .17-.65 8.53 8.53 0 0 1 0-2 1 1 0 0 0 -.5-1l-3.32-1.95 3-5.2 3.33 1.93a1 1 0 0 0 1.09-.07 9 9 0 0 1 1.74-1 1 1 0 0 0 .6-.91v-3.85h6v3.84a1 1 0 0 0 .6.91 9.27 9.27 0 0 1 1.73 1 1 1 0 0 0 1.09.07l3.33-1.93 3 5.2-3.32 1.91a1 1 0 0 0 -.49 1c0 .34.06.67.06 1s0 .67-.06 1a1 1 0 0 0 .49 1l3.32 1.92z"/></g></svg>