<?xml version="1.0"?>
<svg xmlns="http://www.w3.org/2000/svg" id="Twotone" viewBox="0 0 64 64" width="512" height="512"><title>Development icon</title><desc>Development icon for website, application, printing, document, poster design, etc.</desc><metadata><?xpacket begin="﻿" id="W5M0MpCehiHzreSzNTczkc9d"?><x:xmpmeta xmlns:x="adobe:ns:meta/" x:xmptk="Adobe XMP Core 5.6-c145 79.163499, 2018/08/13-16:40:22        "><rdf:RDF xmlns:rdf="http://www.w3.org/1999/02/22-rdf-syntax-ns#"><rdf:Description xmlns:dc="http://purl.org/dc/elements/1.1/" rdf:about=""><dc:title><rdf:Alt><rdf:li xml:lang="x-default">Development icon</rdf:li></rdf:Alt></dc:title><dc:description><rdf:Alt><rdf:li xml:lang="x-default">Development icon for website, application, printing, document, poster design, etc.</rdf:li></rdf:Alt></dc:description><dc:subject><rdf:Bag><rdf:li xml:lang="x-default">Development</rdf:li><rdf:li>idea</rdf:li><rdf:li>cogwheel</rdf:li><rdf:li>bulb</rdf:li><rdf:li>business</rdf:li><rdf:li>innovation</rdf:li><rdf:li>technology</rdf:li></rdf:Bag></dc:subject></rdf:Description></rdf:RDF></x:xmpmeta><?xpacket end="w"?></metadata><g id="Flat"><path d="M22.93,23a5.6,5.6,0,0,0-.11-1.09l2-1.18-2-3.46-2,1.17a6,6,0,0,0-1.89-1.09V15h-4v2.35A6.19,6.19,0,0,0,13,18.44l-2-1.17L9,20.73l2,1.18a6,6,0,0,0,0,2.18L9,25.27l2,3.46,2-1.17a6.19,6.19,0,0,0,1.9,1.09V31h4V28.65a6,6,0,0,0,1.89-1.09l2,1.17,2-3.46-2-1.18A5.6,5.6,0,0,0,22.93,23Zm-6,2a2,2,0,1,1,2-2A2,2,0,0,1,16.93,25Z" style="fill:#79bd9a"/><path d="M52,46V36H48.25a17,17,0,0,0-1.23-3l2.66-2.66-7-7A13.09,13.09,0,0,1,40,26.23V32H32a9,9,0,1,1-9,9,9,9,0,0,1,9-9H24V26.23a13.09,13.09,0,0,1-2.67-2.84l-7,7L17,33.05a17,17,0,0,0-1.23,3H12V46h3.75A17,17,0,0,0,17,49l-2.66,2.66,7.07,7.07L24.05,56A17,17,0,0,0,27,57.25V61H37V57.25A17,17,0,0,0,40,56l2.66,2.66,7.07-7.07L47,49a17,17,0,0,0,1.23-3Z" style="fill:#a8dba8"/><path d="M28.7,21H27v3.39A26.18,26.18,0,0,1,28.7,21Z" style="fill:#a1d51c"/><rect x="22" y="32" width="20" height="4" rx="2" ry="2" style="fill:#79bd9a"/><rect x="22" y="36" width="20" height="4" rx="2" ry="2" style="fill:#79bd9a"/><path d="M26,40H38a0,0,0,0,1,0,0v0a6,6,0,0,1-6,6h0a6,6,0,0,1-6-6v0A0,0,0,0,1,26,40Z" style="fill:#cff09e"/><path d="M39,26A14,14,0,0,1,27.72,3.74,13,13,0,0,0,24,26.23V32H40V26.23c.12-.09.23-.2.34-.3C39.9,26,39.45,26,39,26Z" style="fill:#cff09e"/><path d="M59.07,11A6.5,6.5,0,0,0,59,9.91l2-1.18L59,5.27,57,6.44a6.19,6.19,0,0,0-1.9-1.09V3h-4V5.35a6,6,0,0,0-1.89,1.09l-2-1.17-2,3.46,2,1.18a5.46,5.46,0,0,0,0,2.18l-2,1.18,2,3.46,2-1.17a6,6,0,0,0,1.89,1.09V19h4V16.65A6.19,6.19,0,0,0,57,15.56l2,1.17,2-3.46-2-1.18A6.5,6.5,0,0,0,59.07,11Zm-6,2a2,2,0,1,1,2-2A2,2,0,0,1,53.07,13Z" style="fill:#a8dba8"/></g><g id="Stroke_Close_copy_3" data-name="Stroke Close copy 3"><path d="M52,35H49a16.59,16.59,0,0,0-.73-1.75l2.14-2.15a1,1,0,0,0,.3-.71,1,1,0,0,0-.3-.7L44,23.27a13.84,13.84,0,0,0,2-6.58l.32.54a1,1,0,0,0,1.36.37l1.46-.84a7.18,7.18,0,0,0,1,.56V19a1,1,0,0,0,1,1h4a1,1,0,0,0,1-1V17.32a6.62,6.62,0,0,0,1-.56l1.46.84a1,1,0,0,0,1.37-.37l2-3.46a1,1,0,0,0-.37-1.37l-1.45-.84c0-.19,0-.37,0-.56s0-.37,0-.56L61.5,9.6a1,1,0,0,0,.37-1.37l-2-3.46A1,1,0,0,0,58.5,4.4L57,5.24a6.62,6.62,0,0,0-1-.56V3a1,1,0,0,0-1-1h-4a1,1,0,0,0-1,1V4.68a7.18,7.18,0,0,0-1,.56L47.64,4.4a1,1,0,0,0-1.36.37l-2,3.46a1,1,0,0,0,.36,1.37l1.46.84a5.24,5.24,0,0,0,0,1.12l-.7.4a14,14,0,0,0-27.24,2H14.93a1,1,0,0,0-1,1v1.68a6.62,6.62,0,0,0-1,.56L11.5,16.4a1,1,0,0,0-1.37.37l-2,3.46A1,1,0,0,0,8.5,21.6l1.45.84c0,.19,0,.37,0,.56s0,.37,0,.56L8.5,24.4a1,1,0,0,0-.37,1.37l2,3.46a1,1,0,0,0,1.37.37L13,28.76a6.62,6.62,0,0,0,1,.56v.05l-.31.32a1,1,0,0,0-.3.7,1,1,0,0,0,.3.71l2.14,2.15A16.59,16.59,0,0,0,15,35H12a1,1,0,0,0-1,1V46a1,1,0,0,0,1,1h3a17.68,17.68,0,0,0,.73,1.76L13.62,50.9a1,1,0,0,0-.3.71,1,1,0,0,0,.3.7l7.07,7.07a1,1,0,0,0,1.41,0l2.15-2.14A16.59,16.59,0,0,0,26,58v3a1,1,0,0,0,1,1H37a1,1,0,0,0,1-1V58a16.59,16.59,0,0,0,1.75-.73l2.15,2.14a1,1,0,0,0,1.41,0l7.07-7.07a1,1,0,0,0,.3-.7,1,1,0,0,0-.3-.71l-2.14-2.14A17.68,17.68,0,0,0,49,47h3a1,1,0,0,0,1-1V36A1,1,0,0,0,52,35ZM48.16,11.91a4.65,4.65,0,0,1,0-1.82A1,1,0,0,0,47.68,9l-1.17-.67,1-1.74,1.17.68a1,1,0,0,0,1.15-.11,4.87,4.87,0,0,1,1.58-.91,1,1,0,0,0,.66-.94V4h2V5.35a1,1,0,0,0,.67.94,5.09,5.09,0,0,1,1.58.91,1,1,0,0,0,1.15.11l1.16-.68,1,1.74L58.47,9A1,1,0,0,0,58,10.09a4.65,4.65,0,0,1,0,1.82A1,1,0,0,0,58.47,13l1.16.67-1,1.74-1.16-.68a1,1,0,0,0-1.15.11,5.09,5.09,0,0,1-1.58.91,1,1,0,0,0-.67.94V18h-2V16.65a1,1,0,0,0-.66-.94,4.87,4.87,0,0,1-1.58-.91,1,1,0,0,0-1.15-.11l-1.17.68-1-1.74L47.68,13A1,1,0,0,0,48.16,11.91ZM32,4a12,12,0,0,1,7.38,21.45,1,1,0,0,0-.38.78V31H37V20.54l2.55-1.71A1,1,0,0,0,40,18V13a1,1,0,0,0-1-1H35a1,1,0,0,0-.71.29L32,14.61l-2.54-2.34a1,1,0,0,0-.68-.27H25a1,1,0,0,0-1,1v5a1,1,0,0,0,.45.83L27,20.54V31H25V26.23a1,1,0,0,0-.38-.78A12,12,0,0,1,32,4ZM25.08,41a7,7,0,0,0,13.84,0H40a8,8,0,0,1-16,0Zm2,0h9.8a5,5,0,0,1-9.8,0ZM41,38a1,1,0,0,1-1,1H24a1,1,0,0,1,0-2H40A1,1,0,0,1,41,38ZM24,35a1,1,0,0,1,0-2H40a1,1,0,0,1,0,2Zm4.55-15.83L26,17.46V14h2.36l3,2.73a1,1,0,0,0,1.39,0L35.41,14H38v3.46l-2.55,1.71A1,1,0,0,0,35,20V31H29V20A1,1,0,0,0,28.55,19.17ZM16.93,24a1,1,0,1,1,1-1A1,1,0,0,1,16.93,24Zm3.1-.73-.14.15c0-.12,0-.24,0-.36Zm-4.77,4.44a5.09,5.09,0,0,1-1.58-.91,1,1,0,0,0-1.15-.11l-1.16.68-1-1.74L11.53,25A1,1,0,0,0,12,23.91a4.65,4.65,0,0,1,0-1.82A1,1,0,0,0,11.53,21l-1.16-.67,1-1.74,1.16.68a1,1,0,0,0,1.15-.11,5.09,5.09,0,0,1,1.58-.91,1,1,0,0,0,.67-.94V16H18a14.12,14.12,0,0,0,.81,4.68A3,3,0,0,0,16.93,20a3,3,0,0,0,0,6,2.71,2.71,0,0,0,.41,0l-1.86,1.87A.94.94,0,0,0,15.26,27.71ZM51,45H48.25a1,1,0,0,0-1,.71,15.75,15.75,0,0,1-1.15,2.77,1,1,0,0,0,.17,1.18l1.95,2-5.65,5.65-2-1.95a1,1,0,0,0-1.18-.17,15.75,15.75,0,0,1-2.77,1.15,1,1,0,0,0-.71,1V60H28V57.25a1,1,0,0,0-.71-1,15.75,15.75,0,0,1-2.77-1.15,1,1,0,0,0-1.18.17l-1.95,1.95-5.65-5.65,2-2a1,1,0,0,0,.17-1.18,15.75,15.75,0,0,1-1.15-2.77,1,1,0,0,0-1-.71H13V37h2.75a1,1,0,0,0,1-.71,15.75,15.75,0,0,1,1.15-2.77,1,1,0,0,0-.17-1.18l-2-2,5.49-5.49A13.15,13.15,0,0,0,23,26.71v4.47A3,3,0,0,0,21,34a3,3,0,0,0,.78,2,3,3,0,0,0,.44,4.4A1,1,0,0,0,22,41a10,10,0,0,0,20,0,1,1,0,0,0-.22-.6,3,3,0,0,0,.44-4.4A3,3,0,0,0,43,34a3,3,0,0,0-2-2.82V26.71a13.15,13.15,0,0,0,1.77-1.81l5.49,5.49-1.95,2a1,1,0,0,0-.17,1.18,15.75,15.75,0,0,1,1.15,2.77,1,1,0,0,0,1,.71H51Z" style="fill:#3b8686"/><path d="M53.07,14a3,3,0,1,0-3-3A3,3,0,0,0,53.07,14Zm0-4a1,1,0,1,1-1,1A1,1,0,0,1,53.07,10Z" style="fill:#3b8686"/><path d="M61,21a1,1,0,0,0-1,1V40H56a1,1,0,0,0,0,2h5a1,1,0,0,0,1-1V22A1,1,0,0,0,61,21Z" style="fill:#3b8686"/><path d="M8,40H4V24H5a1,1,0,0,0,0-2H3a1,1,0,0,0-1,1V41a1,1,0,0,0,1,1H8a1,1,0,0,0,0-2Z" style="fill:#3b8686"/></g></svg>
