<svg height="480pt" viewBox="0 0 480 480" width="480pt" xmlns="http://www.w3.org/2000/svg"><path d="m144 96h-136v-88h352v88h-136" fill="#79bd9a"/><path d="m224 96h-216v272h249.761719c-6.394531-13.023438-9.734375-27.332031-9.761719-41.839844v-6.160156h-56c-70.691406 0-128-57.308594-128-128v-32c0-17.671875 14.328125-32 32-32h264v-32zm0 0" fill="#cff09e"/><path d="m360 224.480469c-10.839844-5.882813-20.78125-13.292969-29.519531-22l-18.480469-18.480469-18.480469 18.480469c-24.011719 24.027343-56.589843 37.523437-90.558593 37.519531h-2.960938v86.160156c.027344 14.507813 3.367188 28.816406 9.761719 41.839844h150.238281zm0 0" fill="#cff09e"/><path d="m224 144-21.519531-24-18.480469 24-18.960938-24-21.039062 24v-136h80zm0 0" fill="#a8dba8"/><path d="m48 208h96v32h-96zm0 0" fill="#79bd9a"/><path d="m48 272h72v32h-72zm0 0" fill="#a8dba8"/><path d="m469.039062 240c-33.96875.003906-66.546874-13.492188-90.558593-37.519531l-18.480469-18.480469-18.480469 18.480469c-24.011719 24.027343-56.589843 37.523437-90.558593 37.519531h-2.960938v86.160156c0 26.679688 11.097656 52.15625 30.640625 70.320313l81.359375 75.519531 81.359375-75.519531c19.542969-18.164063 30.640625-43.640625 30.640625-70.320313v-86.160156zm-85.039062 80c-13.253906 0-24-10.746094-24-24s10.746094-24 24-24 24 10.746094 24 24-10.746094 24-24 24zm0 0" fill="#79bd9a"/><path d="m360 248c-39.765625 0-72 32.234375-72 72s32.234375 72 72 72 72-32.234375 72-72-32.234375-72-72-72zm24 72c-13.253906 0-24-10.746094-24-24s10.746094-24 24-24 24 10.746094 24 24-10.746094 24-24 24zm0 0" fill="#cff09e"/><g fill="#3b8686"><path d="m144 200h-96c-4.417969 0-8 3.582031-8 8v32c0 4.417969 3.582031 8 8 8h96c4.417969 0 8-3.582031 8-8v-32c0-4.417969-3.582031-8-8-8zm-8 32h-80v-16h80zm0 0"/><path d="m120 264h-72c-4.417969 0-8 3.582031-8 8v32c0 4.417969 3.582031 8 8 8h72c4.417969 0 8-3.582031 8-8v-32c0-4.417969-3.582031-8-8-8zm-8 32h-56v-16h56zm0 0"/><path d="m264 192h40c4.417969 0 8-3.582031 8-8s-3.582031-8-8-8h-40c-4.417969 0-8 3.582031-8 8s3.582031 8 8 8zm0 0"/><path d="m472 232h-2.960938c-31.902343.136719-62.53125-12.511719-85.039062-35.121094l-16-16v-172.878906c0-4.417969-3.582031-8-8-8h-352c-4.417969 0-8 3.582031-8 8v360c0 4.417969 3.582031 8 8 8h244.800781c5.351563 9.804688 12.238281 18.691406 20.398438 26.320312l81.359375 75.519532c3.070312 2.847656 7.8125 2.847656 10.882812 0l81.359375-75.519532c21.164063-19.671874 33.195313-47.265624 33.199219-76.160156v-86.160156c0-4.417969-3.582031-8-8-8zm-120-144h-120v-72h120zm-136-72v107.039062l-7.519531-8.398437c-1.585938-1.761719-3.871094-2.726563-6.242188-2.640625-2.390625.078125-4.621093 1.222656-6.078125 3.121094l-12.238281 16-12.640625-16c-1.476562-1.867188-3.703125-2.980469-6.082031-3.042969-2.324219-.019531-4.542969.972656-6.078125 2.722656l-6.960938 8v-106.800781zm-200 0h120v72h-120zm0 344v-256h120v40c-.011719 3.347656 2.0625 6.347656 5.199219 7.519531.898437.328125 1.847656.488281 2.800781.480469 2.296875-.003906 4.484375-.992188 6-2.71875l14.71875-16.800781 13.042969 16.480469c1.507812 1.910156 3.804687 3.027343 6.238281 3.039062 2.449219-.03125 4.746094-1.179688 6.238281-3.121094l12.640625-16.398437 15.121094 16.878906c2.222656 2.445313 5.71875 3.269531 8.800781 2.082031 3.109375-1.164062 5.175781-4.121094 5.199219-7.441406v-40h120v76.71875l-16 16c-22.484375 22.667969-53.113281 35.375-85.039062 35.28125h-2.960938c-4.417969 0-8 3.582031-8 8v86.160156c.054688 11.519532 2 22.953125 5.761719 33.839844zm448-33.839844c-.011719 24.472656-10.214844 47.835938-28.160156 64.480469l-75.839844 70.480469-75.839844-70.480469c-17.945312-16.644531-28.148437-40.007813-28.160156-64.480469v-78.160156c34.355469-1.257812 66.941406-15.558594 91.121094-40l12.878906-12.71875 12.878906 12.71875c24.179688 24.441406 56.765625 38.742188 91.121094 40zm0 0"/><path d="m280 320c0 44.183594 35.816406 80 80 80s80-35.816406 80-80-35.816406-80-80-80-80 35.816406-80 80zm144 0c0 35.347656-28.652344 64-64 64s-64-28.652344-64-64 28.652344-64 64-64 64 28.652344 64 64zm0 0"/><path d="m332.398438 313.359375c-2.363282-1.902344-5.601563-2.304687-8.359376-1.039063-2.757812 1.269532-4.5625 3.988282-4.652343 7.023438-.09375 3.035156 1.539062 5.859375 4.214843 7.296875l24 16c1.285157.902344 2.824219 1.378906 4.398438 1.359375 2.421875.007812 4.714844-1.078125 6.238281-2.960938l32-40c1.894531-2.21875 2.433594-5.292968 1.402344-8.023437-1.03125-2.726563-3.46875-4.679687-6.355469-5.089844-2.890625-.414062-5.773437.78125-7.523437 3.113281l-27.441407 34.242188zm0 0"/></g></svg>