<svg height="512" viewBox="0 0 64 64" width="512" xmlns="http://www.w3.org/2000/svg"><path d="m44 32h-24a8 8 0 0 0 -8 8v21h32v-4h2a6 6 0 0 0 6-6v-11a8 8 0 0 0 -8-8zm-6 25h-8a2 2 0 0 1 -2-2v-4a2 2 0 0 1 2-2h2v-3a2 2 0 0 1 2-2h2v5h2z" fill="#79bd9a"/><path d="m34 50v-6a2 2 0 0 0 -2 2v3h-2a2 2 0 0 0 -2 2v4a2 2 0 0 0 2 2h8v-3a4 4 0 0 1 -4-4z" fill="#cff09e"/><path d="m32 32a10 10 0 0 1 -6-2v2a6 6 0 0 0 12 0v-2a10 10 0 0 1 -6 2z" fill="#cff09e"/><path d="m26 22v-2a4 4 0 0 1 4-4h12v-4h-20v10a10 10 0 0 0 10 10 10.2 10.2 0 0 0 2-.2 10 10 0 0 1 -8-9.8z" fill="#cff09e"/><path d="m37 3h-20v12a8 8 0 0 0 5 7.42c0-.14 0-.28 0-.42v-10h20v9.65a10 10 0 0 0 -5-18.65z" fill="#a8dba8"/><g fill="#3b8686"><circle cx="37" cy="18" r="1"/><circle cx="27" cy="18" r="1"/><path d="m32 28a5 5 0 0 0 3.54-1.46 1 1 0 1 0 -1.42-1.42 3 3 0 0 1 -4.24 0 1 1 0 0 0 -1.42 1.42 5 5 0 0 0 3.54 1.46z"/><path d="m20 42a1 1 0 0 0 -1 1v18a1 1 0 0 0 2 0v-18a1 1 0 0 0 -1-1z"/><path d="m44 31h-5v-.52a11 11 0 0 0 4-8.29 11 11 0 0 0 -6-20.19h-20a1 1 0 0 0 -1 1v12a8.94 8.94 0 0 0 5.05 8.06 11 11 0 0 0 3.95 7.42v.52h-5a9 9 0 0 0 -9 9v21a1 1 0 0 0 2 0v-21a7 7 0 0 1 7-7h5.08a7 7 0 0 0 13.84 0h5.08a7 7 0 0 1 7 7v11a5 5 0 0 1 -5 5h-7v-6h5a1 1 0 0 0 1-1v-7a1 1 0 0 0 -2 0v6h-6v-4a1 1 0 0 0 -1-1h-2a3 3 0 0 0 -3 3v2h-1a3 3 0 0 0 -3 3v4a3 3 0 0 0 3 3h13v3a1 1 0 0 0 2 0v-3h1a7 7 0 0 0 7-7v-11a9 9 0 0 0 -9-9zm-26-16v-11h19a9 9 0 0 1 6 15.67v-7.67a1 1 0 0 0 -1-1h-20a1 1 0 0 0 -1 1v8.72a7 7 0 0 1 -3-5.72zm5 7v-9h18v9a9 9 0 0 1 -18 0zm9 15a5 5 0 0 1 -5-5v-.21a10.94 10.94 0 0 0 10 0v.21a5 5 0 0 1 -5 5zm-2 19a1 1 0 0 1 -1-1v-4a1 1 0 0 1 1-1h3a1 1 0 0 0 0-2v-2a1 1 0 0 1 1-1h1v4a1 1 0 0 0 1 1h1v6z"/></g></svg>