<svg height="512" viewBox="0 0 64 64" width="512" xmlns="http://www.w3.org/2000/svg"><path d="m46 19h6a4 4 0 0 1 4 4v6a0 0 0 0 1 0 0h-14a0 0 0 0 1 0 0v-6a4 4 0 0 1 4-4z" fill="#79bd9a"/><path d="m49 19a4 4 0 0 1 -2-.55v2.55a2 2 0 0 0 4 0v-2.55a4 4 0 0 1 -2 .55z" fill="#cff09e"/><path d="m47 15a2 2 0 0 1 2-2h4v-2h-8v4a4 4 0 0 0 4 4 4.09 4.09 0 0 0 1-.14 4 4 0 0 1 -3-3.86z" fill="#cff09e"/><path d="m52 7h-9v3a3 3 0 0 0 2 2.82v-1.82h8v1.82a3 3 0 0 0 -1-5.82z" fill="#a8dba8"/><path d="m12 19h6a4 4 0 0 1 4 4v6a0 0 0 0 1 0 0h-14a0 0 0 0 1 0 0v-6a4 4 0 0 1 4-4z" fill="#79bd9a"/><path d="m15 19a4 4 0 0 1 -2-.55v2.55a2 2 0 0 0 4 0v-2.55a4 4 0 0 1 -2 .55z" fill="#cff09e"/><path d="m13 15a2 2 0 0 1 2-2h4v-2h-8v4a4 4 0 0 0 4 4 4.09 4.09 0 0 0 1-.14 4 4 0 0 1 -3-3.86z" fill="#cff09e"/><path d="m18 7h-9v3a3 3 0 0 0 2 2.82v-1.82h8v1.82a3 3 0 0 0 -1-5.82z" fill="#a8dba8"/><path d="m39 30v-1h-1v4h4v-1h-1a2 2 0 0 1 -2-2z" fill="#cff09e"/><path d="m38 20h-12a4 4 0 0 0 -4 4v5h4v4h12v-4h4v-5a4 4 0 0 0 -4-4z" fill="#79bd9a"/><path d="m36 3h-13v5a5 5 0 0 0 3 4.58v-4.58h12v4.58a5 5 0 0 0 -2-9.58z" fill="#a8dba8"/><path d="m29 14a3 3 0 0 1 3-3h6v-3h-12v6a6 6 0 0 0 6 6 5.71 5.71 0 0 0 1.5-.2 6 6 0 0 1 -4.5-5.8z" fill="#cff09e"/><path d="m32 20a5.93 5.93 0 0 1 -4-1.54v1.54l4 5 4-5v-1.54a5.93 5.93 0 0 1 -4 1.54z" fill="#cff09e"/><path d="m25 30v-1h1v4h-4v-1h1a2 2 0 0 0 2-2z" fill="#cff09e"/><path d="m24.65 43.23-3.76-5.32a2.2 2.2 0 0 0 -3.81 2.17l1.31 2.92h-4.39l-7.66-7c-1.25-1.13-2.84-.79-3.27.84a1.91 1.91 0 0 0 .3 1.64l5.83 8a6 6 0 0 0 4.86 2.52h4.94l-2 12h12v-12a6 6 0 0 0 -4.35-5.77z" fill="#cff09e"/><path d="m60.93 36.87c-.43-1.63-2-2-3.27-.84l-7.66 6.97h-4.39l1.31-2.92a2.2 2.2 0 0 0 -3.81-2.17l-3.76 5.32a6 6 0 0 0 -4.35 5.77v12h12l-2-12h4.94a6 6 0 0 0 4.86-2.47l5.83-8a1.91 1.91 0 0 0 .3-1.66z" fill="#cff09e"/><g fill="#3b8686"><path d="m61.9 36.62a2.88 2.88 0 0 0 -1.9-2.15 3.16 3.16 0 0 0 -3 .82l-7.39 6.71h-2.46l.68-1.51a3.2 3.2 0 0 0 -5.54-3.16l-3.56 5.05a7 7 0 0 0 -4.73 6.62v12a1 1 0 0 0 2 0v-12a5 5 0 0 1 3.63-4.8 1 1 0 0 0 .54-.39l3.76-5.32a1.2 1.2 0 0 1 1.58-.35 1.18 1.18 0 0 1 .49 1.53l-1.31 2.92-.84 1.87a1 1 0 0 0 .51 1.33 1 1 0 0 0 .41.08 1 1 0 0 0 .91-.59l.57-1.28h3.75a1 1 0 0 0 .67-.26l7.67-7a1.17 1.17 0 0 1 1.06-.38 1 1 0 0 1 .57.74.93.93 0 0 1 -.15.79l-5.83 8a5 5 0 0 1 -4.05 2.11h-4.94a1 1 0 0 0 -.76.35 1 1 0 0 0 -.23.81l2 12a1 1 0 0 0 .99.84h.16a1 1 0 0 0 .84-1.16l-1.82-10.84h3.76a7 7 0 0 0 5.67-2.88l5.83-8a2.92 2.92 0 0 0 .46-2.5z"/><path d="m25.27 42.38-3.56-5.05a3.2 3.2 0 0 0 -5.54 3.16l.68 1.51h-2.46l-7.39-6.71a3.13 3.13 0 0 0 -3-.82 2.88 2.88 0 0 0 -1.9 2.15 2.92 2.92 0 0 0 .46 2.48l5.83 8a7 7 0 0 0 5.67 2.9h3.76l-1.82 10.84a1 1 0 0 0 .84 1.16h.16a1 1 0 0 0 1-.84l2-12a1 1 0 0 0 -.23-.81 1 1 0 0 0 -.77-.35h-4.94a5 5 0 0 1 -4.06-2.06l-5.83-8a.93.93 0 0 1 -.17-.81 1 1 0 0 1 .57-.74 1.2 1.2 0 0 1 1.06.38l7.67 7a1 1 0 0 0 .7.23h3.75l.57 1.28a1 1 0 0 0 .91.59 1 1 0 0 0 .41-.08 1 1 0 0 0 .51-1.33l-.84-1.87-1.31-2.92a1.2 1.2 0 0 1 2.07-1.18l3.76 5.32a1 1 0 0 0 .54.39 5 5 0 0 1 3.63 4.8v12a1 1 0 0 0 2 0v-12a7 7 0 0 0 -4.73-6.62z"/><circle cx="29" cy="12" r="1"/><circle cx="35" cy="12" r="1"/><path d="m38 21a3 3 0 0 1 3 3v4h-2v-2a1 1 0 0 0 -2 0v7a1 1 0 0 0 2 0v-3h2v3a1 1 0 0 0 2 0v-10a3 3 0 0 1 3-3v1a3 3 0 0 0 6 0v-1a3 3 0 0 1 3 3v6a1 1 0 0 0 2 0v-6a5 5 0 0 0 -4.1-4.91 4.93 4.93 0 0 0 1.1-3.09v-1.56a4 4 0 0 0 -2-7.44h-9a1 1 0 0 0 -1 1v3a4 4 0 0 0 2 3.44v1.56a4.93 4.93 0 0 0 1.1 3.09 5 5 0 0 0 -3.46 2.51 5 5 0 0 0 -3.64-1.6h-1v-.11a7 7 0 0 0 2-4.89v-.82a6 6 0 0 0 -3-11.18h-13a1 1 0 0 0 -1 1v5a6 6 0 0 0 3 5.18v.82a7 7 0 0 0 2 4.89v.11h-1a5 5 0 0 0 -3.64 1.6 5 5 0 0 0 -3.46-2.51 4.93 4.93 0 0 0 1.1-3.09v-1.56a4 4 0 0 0 -2-7.44h-9a1 1 0 0 0 -1 1v3a4 4 0 0 0 2 3.44v1.56a4.93 4.93 0 0 0 1.1 3.09 5 5 0 0 0 -4.1 4.91v6a1 1 0 0 0 2 0v-6a3 3 0 0 1 3-3v1a3 3 0 0 0 6 0v-1a3 3 0 0 1 3 3v10a1 1 0 0 0 2 0v-3h2v3a1 1 0 0 0 2 0v-7a1 1 0 0 0 -2 0v2h-2v-4a3 3 0 0 1 3-3h1.52l3.7 4.62a1 1 0 0 0 1.56 0l3.7-4.62zm11-3a3 3 0 0 1 -3-3v-3h6v3a3 3 0 0 1 -3 3zm0 4a1 1 0 0 1 -1-1v-1.1a5.05 5.05 0 0 0 2 0v1.1a1 1 0 0 1 -1 1zm-5-14h8a2 2 0 0 1 2 2 2 2 0 0 1 -.09.59 1 1 0 0 0 -.91-.59h-8a1 1 0 0 0 -.91.59 2 2 0 0 1 -.09-.59zm-32 7v-3h6v3a3 3 0 0 1 -6 0zm-2-7h8a2 2 0 0 1 2 2 2 2 0 0 1 -.09.59 1 1 0 0 0 -.91-.59h-8a1 1 0 0 0 -.91.59 2 2 0 0 1 -.09-.59zm5 14a1 1 0 0 1 -1-1v-1.1a5 5 0 0 0 2 0v1.1a1 1 0 0 1 -1 1zm17-3a5 5 0 0 1 -5-5v-5h10v5a5 5 0 0 1 -5 5zm-8-11v-4h12a4 4 0 0 1 3 6.64v-2.64a1 1 0 0 0 -1-1h-12a1 1 0 0 0 -1 1v2.64a4 4 0 0 1 -1-2.64zm8 15.4-2.21-2.76a7 7 0 0 0 4.42 0z"/><path d="m32.71 14.71a1 1 0 0 1 -1.42 0 1 1 0 0 0 -1.41 1.41 3 3 0 0 0 4.24 0 1 1 0 0 0 -1.41-1.41z"/></g></svg>