<svg height="480pt" viewBox="0 0 480 480" width="480pt" xmlns="http://www.w3.org/2000/svg"><path d="m80 152h32v32h-32zm0 0" fill="#cff09e"/><path d="m80 80h32v32h-32zm0 0" fill="#cff09e"/><path d="m80 288v-32h-40v-32h56c-8.835938 0-16 7.164062-16 16v16h32v-72h-72v-32h72v-40h-72v-32h72v-40h-104v392h104v-112c-17.671875 0-32-14.328125-32-32zm0 0" fill="#a8dba8"/><path d="m336 288v-16h-56v16c0 22.089844-17.910156 40-40 40s-40-17.910156-40-40v-40h5.601562c-23.808593-19.75-37.589843-49.070312-37.601562-80h-20v-40h20v-120h-56v248h32v32c0 17.671875-14.328125 32-32 32v112h256v-112c-17.671875 0-32-14.328125-32-32zm0 0" fill="#cff09e"/><g fill="#a8dba8"><path d="m168 72h144l-144-32zm0 0"/><path d="m188 168h-40v-40zm0 0"/><path d="m260 168h-40v-40zm0 0"/><path d="m332 168h-40v-40zm0 0"/><path d="m368 224v32h32c0-17.671875-14.328125-32-32-32zm0 0"/><path d="m400 256v32c0 17.671875-14.328125 32-32 32v112h104v-176zm0 0"/><path d="m368 192h104v32h-104zm0 0"/><path d="m368 128h104v32h-104zm0 0"/></g><path d="m368 96h32v32h-32zm0 0" fill="#cff09e"/><path d="m368 160h32v32h-32zm0 0" fill="#cff09e"/><path d="m368 224c17.671875 0 32 14.328125 32 32v-32zm0 0" fill="#cff09e"/><path d="m352 320h32c17.671875 0 32 14.328125 32 32v80h-96v-80c0-17.671875 14.328125-32 32-32zm0 0" fill="#79bd9a"/><path d="m368 360 23.441406-39.039062c-2.4375-.605469-4.933594-.929688-7.441406-.960938h-32c-2.507812.03125-5.003906.355469-7.441406.960938zm0 0" fill="#cff09e"/><path d="m336 224h32c17.671875 0 32 14.328125 32 32h-64zm0 0" fill="#79bd9a"/><path d="m352 288c0-8.835938 7.164062-16 16-16h32v-16h-64v32c0 17.671875 14.328125 32 32 32 2.703125-.042969 5.390625-.417969 8-1.121094-14.089844-3.636718-23.953125-16.324218-24-30.878906zm0 0" fill="#cff09e"/><path d="m96 320h32c17.671875 0 32 14.328125 32 32v80h-96v-80c0-17.671875 14.328125-32 32-32zm0 0" fill="#79bd9a"/><path d="m112 360 23.441406-39.039062c-2.4375-.605469-4.933594-.929688-7.441406-.960938h-32c-2.507812.03125-5.003906.355469-7.441406.960938zm0 0" fill="#cff09e"/><path d="m96 224h32c8.835938 0 16 7.164062 16 16v16h-64v-16c0-8.835938 7.164062-16 16-16zm0 0" fill="#79bd9a"/><path d="m96 288c0-8.835938 7.164062-16 16-16h32v-16h-64v32c0 17.671875 14.328125 32 32 32 2.703125-.042969 5.390625-.417969 8-1.121094-14.089844-3.636718-23.953125-16.324218-24-30.878906zm0 0" fill="#cff09e"/><path d="m208 328h64c26.507812 0 48 21.492188 48 48v96h-160v-96c0-26.507812 21.492188-48 48-48zm0 0" fill="#79bd9a"/><path d="m272 216h-89.601562c-3.53125 0-6.398438 2.867188-6.398438 6.398438v25.601562c.046875 14.554688 9.910156 27.242188 24 30.878906v-30.878906h80v30.878906c15.40625-4.183594 25.375-19.082031 23.359375-34.917968-2.015625-15.839844-15.394531-27.769532-31.359375-27.960938zm0 0" fill="#79bd9a"/><path d="m240 360c-3.066406-.007812-6.066406-.898438-8.640625-2.558594l-7.359375 58.558594 16 24 16-24-7.359375-58.558594c-2.574219 1.660156-5.574219 2.550782-8.640625 2.558594zm0 0" fill="#a8dba8"/><path d="m240 328c8.835938 0 16 7.164062 16 16s-7.164062 16-16 16-16-7.164062-16-16 7.164062-16 16-16zm0 0" fill="#a8dba8"/><path d="m224 288v-16h56v-24h-80v40c-.125 12.773438 5.917969 24.828125 16.234375 32.363281 10.3125 7.539063 23.632813 9.636719 35.765625 5.636719-16.609375-5.222656-27.929688-20.589844-28-38zm0 0" fill="#cff09e"/><path d="m168 80h144c4.417969 0 8-3.582031 8-8v-32c0-4.417969-3.582031-8-8-8h-144c-4.417969 0-8 3.582031-8 8v32c0 4.417969 3.582031 8 8 8zm8-32h128v16h-128zm0 0" fill="#3b8686"/><path d="m148 176h40c4.417969 0 8-3.582031 8-8v-40c0-4.417969-3.582031-8-8-8h-40c-4.417969 0-8 3.582031-8 8v40c0 4.417969 3.582031 8 8 8zm8-40h24v24h-24zm0 0" fill="#3b8686"/><path d="m260 120h-40c-4.417969 0-8 3.582031-8 8v40c0 4.417969 3.582031 8 8 8h40c4.417969 0 8-3.582031 8-8v-40c0-4.417969-3.582031-8-8-8zm-8 40h-24v-24h24zm0 0" fill="#3b8686"/><path d="m284 128v40c0 4.417969 3.582031 8 8 8h40c4.417969 0 8-3.582031 8-8v-40c0-4.417969-3.582031-8-8-8h-40c-4.417969 0-8 3.582031-8 8zm16 8h24v24h-24zm0 0" fill="#3b8686"/><path d="m472 88h-96v-80c0-4.417969-3.582031-8-8-8h-256c-4.417969 0-8 3.582031-8 8v24h-96c-4.417969 0-8 3.582031-8 8v392c0 4.417969 3.582031 8 8 8s8-3.582031 8-8v-384h88v24h-64c-4.417969 0-8 3.582031-8 8v32c0 4.417969 3.582031 8 8 8h64v24h-64c-4.417969 0-8 3.582031-8 8v32c0 4.417969 3.582031 8 8 8h64v24h-64c-4.417969 0-8 3.582031-8 8v32c0 4.417969 3.582031 8 8 8h32v24c.015625 9.761719 3.601562 19.179688 10.078125 26.480469-15.683594 5.820312-26.085937 20.789062-26.078125 37.519531v80c0 4.417969 3.582031 8 8 8h88v32c0 4.417969 3.582031 8 8 8h160c4.417969 0 8-3.582031 8-8v-32h88c4.417969 0 8-3.582031 8-8v-80c.007812-16.730469-10.394531-31.699219-26.078125-37.519531 6.476563-7.300781 10.0625-16.71875 10.078125-26.480469v-24h56v168c0 4.417969 3.582031 8 8 8s8-3.582031 8-8v-336c0-4.417969-3.582031-8-8-8zm-81.359375 160h-46.640625v-16h24c10.175781-.003906 19.25 6.40625 22.640625 16zm-12.800781 80-9.839844 16.480469-9.839844-16.480469zm14.160156-40c0 13.253906-10.746094 24-24 24s-24-10.746094-24-24v-24h48zm-16-120h88v16h-88zm88-16h-88v-16h88zm-88 64v-16h88v16zm88-112v16h-88v-16zm-416 0v-16h56v16zm0 72v-16h56v16zm72-160h240v200h-24c-4.417969 0-8 3.582031-8 8v64c.015625 9.761719 3.601562 19.179688 10.078125 26.480469-11.300781 4.179687-20.117187 13.230469-24 24.640625-9.773437-11.238282-23.621094-18.117188-38.476563-19.121094 7.933594-8.773438 12.351563-20.167969 12.398438-32v-3.441406c17.230469-7.648438 26.785156-26.289063 22.925781-44.742188-3.855469-18.453125-20.074219-31.710937-38.925781-31.816406h-89.601562c-7.933594.042969-14.355469 6.464844-14.398438 14.398438v25.601562c.039062 15.867188 9.457031 30.210938 24 36.558594v3.441406c.046875 11.832031 4.464844 23.226562 12.398438 32-14.863282.941406-28.738282 7.765625-38.558594 18.960938-3.878906-11.410157-12.695313-20.460938-24-24.640626 6.472656-7.25 10.082031-16.605468 10.160156-26.320312v-48c0-13.253906-10.746094-24-24-24h-8zm121.921875 352 6.078125 46-8 11.601562-8-11.601562 6.078125-46zm6.078125-24c.015625 2.601562-1.238281 5.050781-3.359375 6.558594-2.632813 1.691406-6.007813 1.691406-8.640625 0-2.363281-1.359375-3.871094-3.832032-4-6.558594 0-4.417969 3.582031-8 8-8s8 3.582031 8 8zm32-104h-80c-4.417969 0-8 3.582031-8 8v17.761719c-5.058594-4.523438-7.964844-10.976563-8-17.761719v-24h88c13.253906 0 24 10.746094 24 24-.035156 6.785156-2.941406 13.238281-8 17.761719v-17.761719c0-4.417969-3.582031-8-8-8zm-72 48v-32h64v32c0 17.671875-14.328125 32-32 32s-32-14.328125-32-32zm-86.160156 40-9.839844 16.480469-9.839844-16.480469zm6.160156-96c4.417969 0 8 3.582031 8 8v8h-48v-8c0-4.417969 3.582031-8 8-8zm8 32v24c0 13.253906-10.746094 24-24 24s-24-10.746094-24-24v-24zm-88-32h25.359375c-.902344 2.570312-1.363281 5.277344-1.359375 8v8h-24zm24 120c-.003906-9.003906 5.03125-17.25 13.039062-21.359375l18.960938 32v61.359375h-32zm48 72v-61.761719l18.960938-32c8.136718 4.175781 13.195312 12.617188 13.039062 21.761719v72zm192 40h-16v-80c0-4.417969-3.582031-8-8-8s-8 3.582031-8 8v80h-80v-80c0-4.417969-3.582031-8-8-8s-8 3.582031-8 8v80h-16v-88c0-22.089844 17.910156-40 40-40h9.359375c-3.042969 8.644531-.902344 18.265625 5.519531 24.800781l-6.878906 54.238281c-.222656 1.882813.230469 3.78125 1.28125 5.359376l16 24c1.484375 2.214843 3.972656 3.539062 6.640625 3.539062 2.664063 0 5.152344-1.324219 6.636719-3.539062l16-24c1.050781-1.578126 1.503906-3.476563 1.28125-5.359376l-6.800782-54.320312c6.421876-6.5 8.59375-16.085938 5.601563-24.71875h9.359375c22.089844 0 40 17.910156 40 40zm16-112c-.003906-9.003906 5.03125-17.25 13.039062-21.359375l18.960938 32v61.359375h-32zm80 0v72h-32v-61.761719l18.960938-32c8.136718 4.175781 13.195312 12.617188 13.039062 21.761719zm-.800781-104c-1.164063-5.808594-3.625-11.277344-7.199219-16h64v16zm0 0" fill="#3b8686"/></svg>