<?xml version="1.0" encoding="iso-8859-1"?>
<!-- Generator: Adobe Illustrator 19.0.0, SVG Export Plug-In . SVG Version: 6.00 Build 0)  -->
<svg version="1.1" id="Layer_1" xmlns="http://www.w3.org/2000/svg" xmlns:xlink="http://www.w3.org/1999/xlink" x="0px" y="0px"
	 viewBox="0 0 512 512" style="enable-background:new 0 0 512 512;" xml:space="preserve">
<polygon style="fill:#FF422D;" points="501.801,170.342 341.658,170.342 341.658,10.199 170.342,10.199 170.342,170.342 
	10.199,170.342 10.199,341.658 170.342,341.658 170.342,501.801 341.658,501.801 341.658,341.658 501.801,341.658 "/>
<path d="M341.658,512H170.342c-5.633,0-10.199-4.566-10.199-10.199V351.857H10.199C4.566,351.857,0,347.291,0,341.658V170.342
	c0-5.633,4.566-10.199,10.199-10.199h149.944V10.199C160.143,4.566,164.709,0,170.342,0h171.316c5.633,0,10.199,4.566,10.199,10.199
	v149.944h149.944c5.633,0,10.199,4.566,10.199,10.199v171.316c0,5.633-4.566,10.199-10.199,10.199H351.857v149.944
	C351.857,507.434,347.291,512,341.658,512z M180.541,491.602h150.918V341.658c0-5.633,4.566-10.199,10.199-10.199h149.944V180.541
	H341.658c-5.633,0-10.199-4.566-10.199-10.199V20.398H180.541v149.944c0,5.633-4.566,10.199-10.199,10.199H20.398v150.918h149.944
	c5.633,0,10.199,4.566,10.199,10.199V491.602z"/>
<path d="M158.088,211.124H81.594c-5.633,0-10.199-4.566-10.199-10.199c0-5.633,4.566-10.199,10.199-10.199h76.494
	c5.633,0,10.199,4.566,10.199,10.199C168.287,206.557,163.721,211.124,158.088,211.124z"/>
<path d="M47.936,211.124h-6.12c-5.633,0-10.199-4.566-10.199-10.199c0-5.633,4.566-10.199,10.199-10.199h6.12
	c5.633,0,10.199,4.566,10.199,10.199C58.135,206.557,53.569,211.124,47.936,211.124z"/>
<g>
</g>
<g>
</g>
<g>
</g>
<g>
</g>
<g>
</g>
<g>
</g>
<g>
</g>
<g>
</g>
<g>
</g>
<g>
</g>
<g>
</g>
<g>
</g>
<g>
</g>
<g>
</g>
<g>
</g>
</svg>
