<?xml version="1.0" encoding="iso-8859-1"?>
<!-- Generator: Adobe Illustrator 21.0.0, SVG Export Plug-In . SVG Version: 6.00 Build 0)  -->
<svg xmlns="http://www.w3.org/2000/svg" xmlns:xlink="http://www.w3.org/1999/xlink" version="1.1" id="Capa_1" x="0px" y="0px" viewBox="0 0 512 512" style="enable-background:new 0 0 512 512;" xml:space="preserve" width="512" height="512">
<g>
	<path d="M495.099,204.399l-15-25.8c-3.898-7.2-13.198-9.6-20.4-5.7l-25.499,15c-8.401-7.2-17.701-12.599-28.2-16.5V151   c0-8.401-6.599-15-15-15h-30c-8.401,0-15,6.599-15,15v20.4c-10.499,3.9-19.799,9.3-28.2,16.5l-33.6-19.2l-30,52.2l33.6,18.602   c-1.199,5.4-1.8,10.8-1.8,16.5s0.601,11.1,1.5,16.5l-33.3,18.6l30,52.2l33.6-19.2c8.401,7.202,17.701,12.601,28.2,16.501V361   c0,8.399,6.599,15,15,15h30c8.401,0,15-6.601,15-15v-20.4c10.499-3.9,19.799-9.3,28.2-16.501l25.499,15   c7.202,3.9,16.501,1.501,20.4-5.7l15-25.8c4.2-7.2,1.802-16.5-5.4-20.7L464.5,272.5c0.899-5.4,1.5-10.8,1.5-16.5   s-0.601-11.1-1.8-16.5l25.499-14.401C496.901,220.899,499.3,211.599,495.099,204.399z M431.499,236.499l-60,60   C368.8,299.5,364.9,301,361,301s-7.8-1.5-10.499-4.501l-30-30c-6-5.7-6-15.3,0-21c5.7-5.999,15.298-5.999,20.999,0l19.501,19.2   l49.501-49.2c5.7-5.999,15.298-5.999,20.999,0C437.5,221.199,437.5,230.799,431.499,236.499z"/>
	<path d="M227.08,304.111l-32.88,18.788c-8.401-7.2-17.701-12.599-28.2-16.5V271h-60v35.4c-10.499,3.9-19.799,9.3-28.2,16.5   l-25.499-15c-7.202-3.9-16.501-1.5-20.4,5.7l-15,25.8c-4.2,7.2-1.802,16.5,5.4,20.7L47.8,374.5c-1.199,5.4-1.8,10.8-1.8,16.5   s0.601,11.1,1.5,16.5l-25.199,14.399c-7.202,4.2-9.6,13.5-5.4,20.7l15,25.8c3.898,7.202,13.198,9.6,20.4,5.7l25.499-15   C86.201,466.3,95.501,471.7,106,475.6V496c0,8.399,6.599,16,15,16h30c8.401,0,15-7.601,15-16v-20.4   c10.499-3.9,19.799-9.3,28.2-16.501l25.499,15c7.202,3.9,16.501,1.501,20.4-5.7l15-25.8c4.2-7.2,1.802-16.5-5.4-20.7L224.5,407.5   c0.899-5.4,1.5-10.8,1.5-16.5s-0.601-11.1-1.8-16.5l32.867-18.195L227.08,304.111z M191.605,371.605l-60,60   c-2.93,2.93-6.768,4.395-10.605,4.395s-7.676-1.465-10.605-4.395l-30-30c-5.859-5.859-5.859-15.352,0-21.211s15.352-5.859,21.211,0   L121,399.789l49.395-49.395c5.859-5.859,15.352-5.859,21.211,0S197.465,365.746,191.605,371.605z"/>
	<path d="M166,241v-35.4c10.499-3.9,19.799-9.3,28.2-16.501l32.882,18.79l29.987-52.198L224.5,137.5c0.899-5.4,1.5-10.8,1.5-16.5   s-0.601-11.1-1.8-16.5l25.499-14.401c7.202-4.2,9.6-13.5,5.4-20.7l-15-25.8c-3.898-7.2-13.198-9.6-20.4-5.7l-25.499,15   c-8.401-7.2-17.701-12.599-28.2-16.5V15c0-8.401-6.599-15-15-15h-30c-8.401,0-15,6.599-15,15v21.4   c-10.499,3.9-19.799,9.3-28.2,16.5l-25.499-15c-7.202-3.9-16.501-1.5-20.4,5.7l-15,25.8c-4.2,7.2-1.802,16.5,5.4,20.7L47.8,104.5   c-1.199,5.4-1.8,10.8-1.8,16.5s0.601,11.1,1.5,16.5l-25.199,14.399c-7.202,4.2-9.6,13.5-5.4,20.7l15,25.8   c3.898,7.202,13.198,9.6,20.4,5.7l25.499-15C86.201,196.3,95.501,201.7,106,205.6V241H166z M80.501,131.499c-6-5.7-6-15.3,0-21   c5.7-5.999,15.298-5.999,20.999,0l19.501,19.2l49.501-49.2c5.7-5.999,15.298-5.999,20.999,0c6,5.7,6,15.3,0,21l-60,60   C128.8,164.5,124.9,166,121,166s-7.8-1.5-10.499-4.501L80.501,131.499z"/>
</g>















</svg>
