<?xml version="1.0" encoding="iso-8859-1"?>
<!-- Generator: Adobe Illustrator 19.0.0, SVG Export Plug-In . SVG Version: 6.00 Build 0)  -->
<svg version="1.1" id="Layer_1" xmlns="http://www.w3.org/2000/svg" xmlns:xlink="http://www.w3.org/1999/xlink" x="0px" y="0px"
	 viewBox="0 0 512 512" style="enable-background:new 0 0 512 512;" xml:space="preserve">
<g>
	<g>
		<path d="M256,0c-34.849,0-63.2,28.352-63.2,63.2c0,34.848,28.352,63.2,63.2,63.2c34.848,0,63.2-28.351,63.2-63.2S290.849,0,256,0z
			"/>
	</g>
</g>
<g>
	<g>
		<path d="M256,192.8c-34.849,0-63.2,28.352-63.2,63.2c0,34.848,28.352,63.2,63.2,63.2c34.848,0,63.2-28.352,63.2-63.2
			S290.849,192.8,256,192.8z"/>
	</g>
</g>
<g>
	<g>
		<path d="M256,385.6c-34.849,0-63.2,28.351-63.2,63.2S221.151,512,256,512s63.2-28.352,63.2-63.2S290.849,385.6,256,385.6z"/>
	</g>
</g>
<g>
	<g>
		<path d="M63.2,0C28.352,0,0,28.352,0,63.2c0,34.848,28.352,63.2,63.2,63.2s63.2-28.351,63.2-63.2S98.049,0,63.2,0z"/>
	</g>
</g>
<g>
	<g>
		<path d="M63.2,192.8C28.352,192.8,0,221.151,0,256s28.352,63.2,63.2,63.2s63.2-28.352,63.2-63.2S98.049,192.8,63.2,192.8z"/>
	</g>
</g>
<g>
	<g>
		<path d="M63.2,385.6C28.352,385.6,0,413.951,0,448.8S28.352,512,63.2,512s63.2-28.352,63.2-63.2S98.049,385.6,63.2,385.6z"/>
	</g>
</g>
<g>
	<g>
		<path d="M448.8,0c-34.848,0-63.2,28.352-63.2,63.2c0,34.848,28.351,63.2,63.2,63.2S512,98.049,512,63.2S483.648,0,448.8,0z"/>
	</g>
</g>
<g>
	<g>
		<path d="M448.8,192.8c-34.849,0-63.2,28.352-63.2,63.2c0,34.848,28.352,63.2,63.2,63.2S512,290.849,512,256
			S483.648,192.8,448.8,192.8z"/>
	</g>
</g>
<g>
	<g>
		<path d="M448.8,385.6c-34.849,0-63.2,28.351-63.2,63.2s28.352,63.2,63.2,63.2s63.2-28.352,63.2-63.2S483.648,385.6,448.8,385.6z"
			/>
	</g>
</g>
<g>
</g>
<g>
</g>
<g>
</g>
<g>
</g>
<g>
</g>
<g>
</g>
<g>
</g>
<g>
</g>
<g>
</g>
<g>
</g>
<g>
</g>
<g>
</g>
<g>
</g>
<g>
</g>
<g>
</g>
</svg>
