<svg height="464pt" viewBox="0 0 464 464" width="464pt" xmlns="http://www.w3.org/2000/svg"><path d="m108.425781 24.847656 5.160157-2.574218 4.078124 4.078124c3.648438 3.648438 8.496094 5.65625 13.65625 5.65625h3.878907c-3.71875-18.230468-19.871094-31.9999995-39.191407-31.9999995-19.320312 0-35.472656 13.7695315-39.191406 31.9999995h21.304688c10.445312-.007812 20.933594-2.480468 30.304687-7.160156zm0 0"/><path d="m76.007812 98.601562 3.992188 2.320313v22.804687l16 10.664063 16-10.664063v-22.804687l3.992188-2.3125c12.34375-7.144531 20.007812-20.402344 20.007812-34.609375v-16h-4.6875c-7.496094 0-14.625-2.320312-20.585938-6.609375-10.285156 4.335937-21.460937 6.609375-32.613281 6.609375h-22.113281v16c0 14.207031 7.664062 27.464844 20.007812 34.601562zm0 0"/><path d="m212.007812 98.601562 3.992188 2.320313v22.804687l16 10.664063 16-10.664063v-22.804687l3.992188-2.3125c12.34375-7.144531 20.007812-20.402344 20.007812-34.609375v-16h-22.113281c-11.160157 0-22.328125-2.273438-32.613281-6.609375-5.960938 4.289063-13.097657 6.609375-20.585938 6.609375h-4.6875v16c0 14.207031 7.664062 27.464844 20.007812 34.601562zm0 0"/><path d="m346.34375 26.34375 4.082031-4.078125 5.160157 2.574219c9.367187 4.679687 19.847656 7.160156 30.308593 7.160156h21.304688c-3.71875-18.230469-19.871094-32-39.191407-32-19.320312 0-35.472656 13.769531-39.191406 32h3.878906c5.144532 0 10-2.007812 13.648438-5.65625zm0 0"/><path d="m348.007812 98.601562 3.992188 2.320313v22.804687l16 10.664063 16-10.664063v-22.804687l3.992188-2.3125c12.34375-7.144531 20.007812-20.402344 20.007812-34.609375v-16h-22.113281c-11.160157 0-22.328125-2.273438-32.613281-6.609375-5.960938 4.289063-13.097657 6.609375-20.585938 6.609375h-4.6875v16c0 14.207031 7.664062 27.464844 20.007812 34.601562zm0 0"/><path d="m210.34375 26.34375 4.082031-4.078125 5.160157 2.574219c9.367187 4.679687 19.847656 7.160156 30.308593 7.160156h21.304688c-3.71875-18.230469-19.871094-32-39.191407-32-19.320312 0-35.472656 13.769531-39.191406 32h3.878906c5.144532 0 10-2.007812 13.648438-5.65625zm0 0"/><path d="m136 232h192v-56.183594c0-10.6875-6.871094-19.921875-17.105469-22.992187l-53.589843-16.082031-25.304688 16.875-25.304688-16.875-53.589843 16.074218c-10.234375 3.078125-17.105469 12.3125-17.105469 23zm0 0"/><path d="m446.894531 152.824219-53.589843-16.082031-25.304688 16.875-25.304688-16.875-17.488281 5.25c11.503907 7.167968 18.792969 19.6875 18.792969 33.824218v56.183594h80v88h-120v-5.769531l-10.359375-3.453125c-1.375-4.953125-3.34375-9.707032-5.878906-14.183594l4.886719-9.777344-19.472657-19.472656-9.777343 4.886719c-4.488282-2.535157-9.230469-4.503907-14.183594-5.878907l-3.453125-10.359374h-27.53125l-3.453125 10.359374c-4.953125 1.375-9.707032 3.34375-14.183594 5.878907l-9.777344-4.886719-19.472656 19.472656 4.886719 9.777344c-2.535157 4.484375-4.503907 9.230469-5.878907 14.183594l-10.351562 3.460937v5.769531h-120v-88h80v-56.183593c0-14.136719 7.289062-26.65625 18.792969-33.816407l-17.488281-5.265624-25.304688 16.875-25.304688-16.875-53.589843 16.082031c-10.234375 3.070312-17.105469 12.304687-17.105469 22.992187v56.183594h24v104h96v80h-48v48h112v-48h-48v-80h24v5.769531l10.359375 3.453125c1.375 4.953125 3.34375 9.699219 5.878906 14.175782l-4.886719 9.777343 19.472657 19.480469 9.777343-4.886719c4.488282 2.535157 9.230469 4.503907 14.183594 5.878907l3.453125 10.359374h27.53125l3.453125-10.359374c4.953125-1.375 9.707032-3.34375 14.183594-5.878907l9.777344 4.886719 19.472656-19.480469-4.886719-9.777343c2.535157-4.488282 4.503907-9.222657 5.878907-14.175782l10.351562-3.453125v-5.769531h24v80h-48v48h112v-48h-48v-80h96v-104h24v-56.183594c0-10.6875-6.871094-19.921875-17.105469-22.992187zm-214.894531 199.175781c-13.257812 0-24-10.742188-24-24s10.742188-24 24-24 24 10.742188 24 24-10.742188 24-24 24zm0 0"/><path d="m56 288h16v16h-16zm0 0"/><path d="m88 288h16v16h-16zm0 0"/><path d="m120 288h16v16h-16zm0 0"/><path d="m328 288h16v16h-16zm0 0"/><path d="m360 288h16v16h-16zm0 0"/><path d="m392 288h16v16h-16zm0 0"/></svg>